<?xml version="1.0" encoding="utf-8" standalone="no"?>
<!DOCTYPE svg PUBLIC "-//W3C//DTD SVG 1.1//EN"
  "http://www.w3.org/Graphics/SVG/1.1/DTD/svg11.dtd">
<svg xmlns:xlink="http://www.w3.org/1999/xlink" width="619.2pt" height="619.2pt" viewBox="0 0 619.2 619.2" xmlns="http://www.w3.org/2000/svg" version="1.1">
 <metadata>
  <rdf:RDF xmlns:dc="http://purl.org/dc/elements/1.1/" xmlns:cc="http://creativecommons.org/ns#" xmlns:rdf="http://www.w3.org/1999/02/22-rdf-syntax-ns#">
   <cc:Work>
    <dc:type rdf:resource="http://purl.org/dc/dcmitype/StillImage"/>
    <dc:date>2025-04-06T06:33:36.156876</dc:date>
    <dc:format>image/svg+xml</dc:format>
    <dc:creator>
     <cc:Agent>
      <dc:title>Matplotlib v3.8.4, https://matplotlib.org/</dc:title>
     </cc:Agent>
    </dc:creator>
   </cc:Work>
  </rdf:RDF>
 </metadata>
 <defs>
  <style type="text/css">*{stroke-linejoin: round; stroke-linecap: butt}</style>
 </defs>
 <g id="figure_1">
  <g id="patch_1">
   <path d="M 0 619.2 
L 619.2 619.2 
L 619.2 0 
L 0 0 
z
" style="fill: #ffffff"/>
  </g>
  <g id="patch_2">
   <path d="M 7.2 612 
L 612 612 
L 612 7.2 
L 7.2 7.2 
z
" style="fill: #ffffff"/>
  </g>
  <g id="axes_1">
   <g id="line2d_1">
    <path d="M 302.323434 346.312714 
L 302.174656 292.216199 
" clip-path="url(#pe58ef11237)" style="fill: none; stroke-dasharray: 1,1.65; stroke-dashoffset: 0; stroke: #000000"/>
   </g>
   <g id="line2d_2">
    <path d="M 302.323434 346.312714 
L 309.847417 289.233061 
" clip-path="url(#pe58ef11237)" style="fill: none; stroke: #000000; stroke-linecap: square"/>
   </g>
   <g id="line2d_3">
    <path d="M 468.846966 393.43461 
L 468.846966 393.43461 
" clip-path="url(#pe58ef11237)" style="fill: none; stroke-dasharray: 1,1.65; stroke-dashoffset: 0; stroke: #008000"/>
   </g>
   <g id="line2d_4">
    <path d="M 468.846966 393.43461 
L 481.391611 387.722997 
" clip-path="url(#pe58ef11237)" style="fill: none; stroke: #008000; stroke-linecap: square"/>
   </g>
   <g id="line2d_5">
    <path d="M 334.507652 251.921657 
L 334.074718 251.671768 
" clip-path="url(#pe58ef11237)" style="fill: none; stroke-dasharray: 1,1.65; stroke-dashoffset: 0; stroke: #0000ff"/>
   </g>
   <g id="line2d_6">
    <path d="M 382.935008 232.300969 
L 384.406433 233.131574 
" clip-path="url(#pe58ef11237)" style="fill: none; stroke: #0000ff; stroke-linecap: square"/>
   </g>
   <g id="line2d_7">
    <path d="M 512.696285 373.470429 
L 512.702907 373.280514 
" clip-path="url(#pe58ef11237)" style="fill: none; stroke-dasharray: 1,1.65; stroke-dashoffset: 0; stroke: #ff0000"/>
   </g>
   <g id="line2d_8">
    <path d="M 524.979509 368.041942 
L 568.172726 347.914538 
" clip-path="url(#pe58ef11237)" style="fill: none; stroke: #ff0000; stroke-linecap: square"/>
   </g>
   <g id="line2d_9">
    <path d="M 327.859334 271.544645 
L 323.594315 273.30966 
" clip-path="url(#pe58ef11237)" style="fill: none; stroke-dasharray: 1,1.65; stroke-dashoffset: 0; stroke: #000000"/>
   </g>
   <g id="line2d_10">
    <path d="M 335.77542 269.419602 
L 331.526538 271.012022 
" clip-path="url(#pe58ef11237)" style="fill: none; stroke: #000000; stroke-linecap: square"/>
   </g>
   <g id="line2d_11">
    <path d="M 512.696285 373.470429 
L 512.702907 373.280514 
" clip-path="url(#pe58ef11237)" style="fill: none; stroke: #ff0000; stroke-linecap: square"/>
   </g>
   <g id="line2d_12">
    <path d="M 524.979509 368.041942 
L 568.172726 347.914538 
" clip-path="url(#pe58ef11237)" style="fill: none; stroke: #ff0000; stroke-linecap: square"/>
   </g>
   <g id="line2d_13">
    <path d="M 259.306248 364.726525 
L 258.737798 310.288531 
" clip-path="url(#pe58ef11237)" style="fill: none; stroke-dasharray: 1,1.65; stroke-dashoffset: 0; stroke: #000000"/>
   </g>
   <g id="line2d_14">
    <path d="M 259.306248 364.726525 
L 266.555302 306.823641 
" clip-path="url(#pe58ef11237)" style="fill: none; stroke: #000000; stroke-linecap: square"/>
   </g>
   <g id="line2d_15">
    <path d="M 112.254496 180.736021 
L 112.254496 180.736021 
" clip-path="url(#pe58ef11237)" style="fill: none; stroke-dasharray: 1,1.65; stroke-dashoffset: 0; stroke: #008000"/>
   </g>
   <g id="line2d_16">
    <path d="M 112.254496 180.736021 
L 124.373586 176.184529 
" clip-path="url(#pe58ef11237)" style="fill: none; stroke: #008000; stroke-linecap: square"/>
   </g>
   <g id="line2d_17">
    <path d="M 225.371893 296.675073 
L 224.943618 296.412868 
" clip-path="url(#pe58ef11237)" style="fill: none; stroke-dasharray: 1,1.65; stroke-dashoffset: 0; stroke: #0000ff"/>
   </g>
   <g id="line2d_18">
    <path d="M 278.124341 274.796915 
L 275.800951 273.418297 
" clip-path="url(#pe58ef11237)" style="fill: none; stroke: #0000ff; stroke-linecap: square"/>
   </g>
   <g id="line2d_19">
    <path d="M 490.882747 383.401927 
L 490.888658 383.211388 
" clip-path="url(#pe58ef11237)" style="fill: none; stroke-dasharray: 1,1.65; stroke-dashoffset: 0; stroke: #ff0000"/>
   </g>
   <g id="line2d_20">
    <path d="M 503.296047 377.832582 
L 547.099113 357.564105 
" clip-path="url(#pe58ef11237)" style="fill: none; stroke: #ff0000; stroke-linecap: square"/>
   </g>
   <g id="line2d_21">
    <path d="M 323.594315 273.30966 
L 302.147068 282.185288 
" clip-path="url(#pe58ef11237)" style="fill: none; stroke-dasharray: 1,1.65; stroke-dashoffset: 0; stroke: #000000"/>
   </g>
   <g id="line2d_22">
    <path d="M 331.526538 271.012022 
L 310.136074 279.089012 
" clip-path="url(#pe58ef11237)" style="fill: none; stroke: #000000; stroke-linecap: square"/>
   </g>
   <g id="line2d_23">
    <path d="M 424.094945 413.809782 
L 424.098631 413.617356 
" clip-path="url(#pe58ef11237)" style="fill: none; stroke: #ff0000; stroke-linecap: square"/>
   </g>
   <g id="line2d_24">
    <path d="M 436.906168 407.809316 
L 482.575309 387.109432 
" clip-path="url(#pe58ef11237)" style="fill: none; stroke: #ff0000; stroke-linecap: square"/>
   </g>
   <g id="line2d_25">
    <path d="M 468.846966 393.43461 
L 468.85215 393.243445 
" clip-path="url(#pe58ef11237)" style="fill: none; stroke-dasharray: 1,1.65; stroke-dashoffset: 0; stroke: #ff0000"/>
   </g>
   <g id="line2d_26">
    <path d="M 481.391611 387.722997 
L 525.810554 367.312096 
" clip-path="url(#pe58ef11237)" style="fill: none; stroke: #ff0000; stroke-linecap: square"/>
   </g>
   <g id="line2d_27">
    <path d="M 302.147068 282.185288 
L 280.494082 291.146059 
" clip-path="url(#pe58ef11237)" style="fill: none; stroke-dasharray: 1,1.65; stroke-dashoffset: 0; stroke: #000000"/>
   </g>
   <g id="line2d_28">
    <path d="M 310.136074 279.089012 
L 288.569711 287.803396 
" clip-path="url(#pe58ef11237)" style="fill: none; stroke: #000000; stroke-linecap: square"/>
   </g>
   <g id="line2d_29">
    <path d="M 328.742539 266.269656 
L 328.742891 266.086689 
" clip-path="url(#pe58ef11237)" style="fill: none; stroke: #ff0000; stroke-linecap: square"/>
   </g>
   <g id="line2d_30">
    <path d="M 337.03563 263.835742 
L 377.643529 246.08937 
" clip-path="url(#pe58ef11237)" style="fill: none; stroke: #ff0000; stroke-linecap: square"/>
   </g>
   <g id="line2d_31">
    <path d="M 446.585526 403.570033 
L 446.58997 403.378239 
" clip-path="url(#pe58ef11237)" style="fill: none; stroke-dasharray: 1,1.65; stroke-dashoffset: 0; stroke: #ff0000"/>
   </g>
   <g id="line2d_32">
    <path d="M 459.262807 397.71472 
L 504.303744 377.160023 
" clip-path="url(#pe58ef11237)" style="fill: none; stroke: #ff0000; stroke-linecap: square"/>
   </g>
   <g id="line2d_33">
    <path d="M 280.494082 291.146059 
L 258.632381 300.193203 
" clip-path="url(#pe58ef11237)" style="fill: none; stroke-dasharray: 1,1.65; stroke-dashoffset: 0; stroke: #000000"/>
   </g>
   <g id="line2d_34">
    <path d="M 288.569711 287.803396 
L 266.772423 296.61135 
" clip-path="url(#pe58ef11237)" style="fill: none; stroke: #000000; stroke-linecap: square"/>
   </g>
   <g id="line2d_35">
    <path d="M 241.506867 302.275427 
L 241.50437 302.090082 
" clip-path="url(#pe58ef11237)" style="fill: none; stroke: #ff0000; stroke-linecap: square"/>
   </g>
   <g id="line2d_36">
    <path d="M 250.113821 297.712814 
L 293.872123 280.288235 
" clip-path="url(#pe58ef11237)" style="fill: none; stroke: #ff0000; stroke-linecap: square"/>
   </g>
   <g id="line2d_37">
    <path d="M 424.094945 413.809782 
L 424.098631 413.617356 
" clip-path="url(#pe58ef11237)" style="fill: none; stroke-dasharray: 1,1.65; stroke-dashoffset: 0; stroke: #ff0000"/>
   </g>
   <g id="line2d_38">
    <path d="M 436.906168 407.809316 
L 482.575309 387.109432 
" clip-path="url(#pe58ef11237)" style="fill: none; stroke: #ff0000; stroke-linecap: square"/>
   </g>
   <g id="line2d_39">
    <path d="M 258.632381 300.193203 
L 236.558934 309.327975 
" clip-path="url(#pe58ef11237)" style="fill: none; stroke-dasharray: 1,1.65; stroke-dashoffset: 0; stroke: #000000"/>
   </g>
   <g id="line2d_40">
    <path d="M 266.772423 296.61135 
L 244.787985 304.916923 
" clip-path="url(#pe58ef11237)" style="fill: none; stroke: #000000; stroke-linecap: square"/>
   </g>
   <g id="line2d_41">
    <path d="M 318.483205 260.290933 
L 318.483228 260.108365 
" clip-path="url(#pe58ef11237)" style="fill: none; stroke: #ff0000; stroke-linecap: square"/>
   </g>
   <g id="line2d_42">
    <path d="M 326.771115 257.876687 
L 368.861723 241.107075 
" clip-path="url(#pe58ef11237)" style="fill: none; stroke: #ff0000; stroke-linecap: square"/>
   </g>
   <g id="line2d_43">
    <path d="M 328.742539 266.269656 
L 328.742891 266.086689 
" clip-path="url(#pe58ef11237)" style="fill: none; stroke-dasharray: 1,1.65; stroke-dashoffset: 0; stroke: #ff0000"/>
   </g>
   <g id="line2d_44">
    <path d="M 337.03563 263.835742 
L 377.643529 246.08937 
" clip-path="url(#pe58ef11237)" style="fill: none; stroke: #ff0000; stroke-linecap: square"/>
   </g>
   <g id="line2d_45">
    <path d="M 236.558934 309.327975 
L 232.118564 311.165557 
" clip-path="url(#pe58ef11237)" style="fill: none; stroke-dasharray: 1,1.65; stroke-dashoffset: 0; stroke: #000000"/>
   </g>
   <g id="line2d_46">
    <path d="M 244.787985 304.916923 
L 240.360381 306.577751 
" clip-path="url(#pe58ef11237)" style="fill: none; stroke: #000000; stroke-linecap: square"/>
   </g>
   <g id="line2d_47">
    <path d="M 231.335791 296.062402 
L 231.332971 295.877464 
" clip-path="url(#pe58ef11237)" style="fill: none; stroke: #ff0000; stroke-linecap: square"/>
   </g>
   <g id="line2d_48">
    <path d="M 239.932591 291.525426 
L 282.131281 273.321342 
" clip-path="url(#pe58ef11237)" style="fill: none; stroke: #ff0000; stroke-linecap: square"/>
   </g>
   <g id="line2d_49">
    <path d="M 307.246999 275.141755 
L 307.246659 274.958197 
" clip-path="url(#pe58ef11237)" style="fill: none; stroke-dasharray: 1,1.65; stroke-dashoffset: 0; stroke: #ff0000"/>
   </g>
   <g id="line2d_50">
    <path d="M 315.556743 271.922575 
L 357.01086 254.512457 
" clip-path="url(#pe58ef11237)" style="fill: none; stroke: #ff0000; stroke-linecap: square"/>
   </g>
   <g id="line2d_51">
    <path d="M 154.648061 164.814464 
L 154.64311 164.638439 
" clip-path="url(#pe58ef11237)" style="fill: none; stroke: #ff0000; stroke-linecap: square"/>
   </g>
   <g id="line2d_52">
    <path d="M 166.557061 160.504557 
L 209.026007 144.700229 
" clip-path="url(#pe58ef11237)" style="fill: none; stroke: #ff0000; stroke-linecap: square"/>
   </g>
   <g id="line2d_53">
    <path d="M 285.544551 284.099253 
L 285.543506 283.915102 
" clip-path="url(#pe58ef11237)" style="fill: none; stroke-dasharray: 1,1.65; stroke-dashoffset: 0; stroke: #ff0000"/>
   </g>
   <g id="line2d_54">
    <path d="M 293.624942 280.763224 
L 336.173454 263.019126 
" clip-path="url(#pe58ef11237)" style="fill: none; stroke: #ff0000; stroke-linecap: square"/>
   </g>
   <g id="line2d_55">
    <path d="M 69.082836 196.949804 
L 69.075148 196.771541 
" clip-path="url(#pe58ef11237)" style="fill: none; stroke: #ff0000; stroke-linecap: square"/>
   </g>
   <g id="line2d_56">
    <path d="M 81.415603 192.152392 
L 124.892938 175.317975 
" clip-path="url(#pe58ef11237)" style="fill: none; stroke: #ff0000; stroke-linecap: square"/>
   </g>
   <g id="line2d_57">
    <path d="M 263.632193 293.143389 
L 263.630429 292.958643 
" clip-path="url(#pe58ef11237)" style="fill: none; stroke-dasharray: 1,1.65; stroke-dashoffset: 0; stroke: #ff0000"/>
   </g>
   <g id="line2d_58">
    <path d="M 272.100054 289.43388 
L 315.12825 271.610627 
" clip-path="url(#pe58ef11237)" style="fill: none; stroke: #ff0000; stroke-linecap: square"/>
   </g>
   <g id="line2d_59">
    <path d="M 241.506867 302.275427 
L 241.50437 302.090082 
" clip-path="url(#pe58ef11237)" style="fill: none; stroke-dasharray: 1,1.65; stroke-dashoffset: 0; stroke: #ff0000"/>
   </g>
   <g id="line2d_60">
    <path d="M 250.113821 297.712814 
L 293.872123 280.288235 
" clip-path="url(#pe58ef11237)" style="fill: none; stroke: #ff0000; stroke-linecap: square"/>
   </g>
   <g id="line2d_61">
    <path d="M 474.808366 389.430369 
L 434.061678 365.218635 
" clip-path="url(#pe58ef11237)" style="fill: none; stroke-dasharray: 1,1.65; stroke-dashoffset: 0; stroke: #000000"/>
   </g>
   <g id="line2d_62">
    <path d="M 531.985201 363.414488 
L 490.399015 340.132888 
" clip-path="url(#pe58ef11237)" style="fill: none; stroke: #000000; stroke-linecap: square"/>
   </g>
   <g id="line2d_63">
    <path d="M 318.483205 260.290933 
L 318.483228 260.108365 
" clip-path="url(#pe58ef11237)" style="fill: none; stroke-dasharray: 1,1.65; stroke-dashoffset: 0; stroke: #ff0000"/>
   </g>
   <g id="line2d_64">
    <path d="M 326.771115 257.876687 
L 368.861723 241.107075 
" clip-path="url(#pe58ef11237)" style="fill: none; stroke: #ff0000; stroke-linecap: square"/>
   </g>
   <g id="line2d_65">
    <path d="M 434.061678 365.218635 
L 394.301695 341.593202 
" clip-path="url(#pe58ef11237)" style="fill: none; stroke-dasharray: 1,1.65; stroke-dashoffset: 0; stroke: #000000"/>
   </g>
   <g id="line2d_66">
    <path d="M 490.399015 340.132888 
L 449.61516 317.480768 
" clip-path="url(#pe58ef11237)" style="fill: none; stroke: #000000; stroke-linecap: square"/>
   </g>
   <g id="line2d_67">
    <path d="M 297.008397 269.105714 
L 297.007729 268.922558 
" clip-path="url(#pe58ef11237)" style="fill: none; stroke-dasharray: 1,1.65; stroke-dashoffset: 0; stroke: #ff0000"/>
   </g>
   <g id="line2d_68">
    <path d="M 305.311292 265.908076 
L 347.483872 249.047445 
" clip-path="url(#pe58ef11237)" style="fill: none; stroke: #ff0000; stroke-linecap: square"/>
   </g>
   <g id="line2d_69">
    <path d="M 394.301695 341.593202 
L 355.493005 318.533029 
" clip-path="url(#pe58ef11237)" style="fill: none; stroke-dasharray: 1,1.65; stroke-dashoffset: 0; stroke: #000000"/>
   </g>
   <g id="line2d_70">
    <path d="M 449.61516 317.480768 
L 409.482792 295.482058 
" clip-path="url(#pe58ef11237)" style="fill: none; stroke: #000000; stroke-linecap: square"/>
   </g>
   <g id="line2d_71">
    <path d="M 275.327554 278.005067 
L 275.326183 277.82132 
" clip-path="url(#pe58ef11237)" style="fill: none; stroke-dasharray: 1,1.65; stroke-dashoffset: 0; stroke: #ff0000"/>
   </g>
   <g id="line2d_72">
    <path d="M 283.400688 274.69065 
L 325.904761 257.062569 
" clip-path="url(#pe58ef11237)" style="fill: none; stroke: #ff0000; stroke-linecap: square"/>
   </g>
   <g id="line2d_73">
    <path d="M 355.493005 318.533029 
L 317.60187 296.018069 
" clip-path="url(#pe58ef11237)" style="fill: none; stroke-dasharray: 1,1.65; stroke-dashoffset: 0; stroke: #000000"/>
   </g>
   <g id="line2d_74">
    <path d="M 409.482792 295.482058 
L 369.973991 274.108317 
" clip-path="url(#pe58ef11237)" style="fill: none; stroke: #000000; stroke-linecap: square"/>
   </g>
   <g id="line2d_75">
    <path d="M 253.437698 286.990214 
L 253.435609 286.805873 
" clip-path="url(#pe58ef11237)" style="fill: none; stroke-dasharray: 1,1.65; stroke-dashoffset: 0; stroke: #ff0000"/>
   </g>
   <g id="line2d_76">
    <path d="M 261.897225 283.304108 
L 304.121534 265.153508 
" clip-path="url(#pe58ef11237)" style="fill: none; stroke: #ff0000; stroke-linecap: square"/>
   </g>
   <g id="line2d_77">
    <path d="M 317.60187 296.018069 
L 280.596131 274.029211 
" clip-path="url(#pe58ef11237)" style="fill: none; stroke-dasharray: 1,1.65; stroke-dashoffset: 0; stroke: #000000"/>
   </g>
   <g id="line2d_78">
    <path d="M 369.973991 274.108317 
L 331.179485 253.285474 
" clip-path="url(#pe58ef11237)" style="fill: none; stroke: #000000; stroke-linecap: square"/>
   </g>
   <g id="line2d_79">
    <path d="M 231.335791 296.062402 
L 231.332971 295.877464 
" clip-path="url(#pe58ef11237)" style="fill: none; stroke-dasharray: 1,1.65; stroke-dashoffset: 0; stroke: #ff0000"/>
   </g>
   <g id="line2d_80">
    <path d="M 239.932591 291.525426 
L 282.131281 273.321342 
" clip-path="url(#pe58ef11237)" style="fill: none; stroke: #ff0000; stroke-linecap: square"/>
   </g>
   <g id="line2d_81">
    <path d="M 154.648061 164.814464 
L 154.64311 164.638439 
" clip-path="url(#pe58ef11237)" style="fill: none; stroke-dasharray: 1,1.65; stroke-dashoffset: 0; stroke: #ff0000"/>
   </g>
   <g id="line2d_82">
    <path d="M 166.557061 160.504557 
L 209.026007 144.700229 
" clip-path="url(#pe58ef11237)" style="fill: none; stroke: #ff0000; stroke-linecap: square"/>
   </g>
   <g id="line2d_83">
    <path d="M 133.54722 172.739211 
L 133.541602 172.56263 
" clip-path="url(#pe58ef11237)" style="fill: none; stroke-dasharray: 1,1.65; stroke-dashoffset: 0; stroke: #ff0000"/>
   </g>
   <g id="line2d_84">
    <path d="M 145.560822 168.309045 
L 188.273409 152.252524 
" clip-path="url(#pe58ef11237)" style="fill: none; stroke: #ff0000; stroke-linecap: square"/>
   </g>
   <g id="line2d_85">
    <path d="M 112.254496 180.736021 
L 112.248201 180.558883 
" clip-path="url(#pe58ef11237)" style="fill: none; stroke-dasharray: 1,1.65; stroke-dashoffset: 0; stroke: #ff0000"/>
   </g>
   <g id="line2d_86">
    <path d="M 124.373586 176.184529 
L 167.33537 159.872305 
" clip-path="url(#pe58ef11237)" style="fill: none; stroke: #ff0000; stroke-linecap: square"/>
   </g>
   <g id="line2d_87">
    <path d="M 90.76726 188.805884 
L 90.760275 188.628185 
" clip-path="url(#pe58ef11237)" style="fill: none; stroke-dasharray: 1,1.65; stroke-dashoffset: 0; stroke: #ff0000"/>
   </g>
   <g id="line2d_88">
    <path d="M 102.992735 184.131981 
L 146.209394 167.560481 
" clip-path="url(#pe58ef11237)" style="fill: none; stroke: #ff0000; stroke-linecap: square"/>
   </g>
   <g id="line2d_89">
    <path d="M 69.082836 196.949804 
L 69.075148 196.771541 
" clip-path="url(#pe58ef11237)" style="fill: none; stroke-dasharray: 1,1.65; stroke-dashoffset: 0; stroke: #ff0000"/>
   </g>
   <g id="line2d_90">
    <path d="M 81.415603 192.152392 
L 124.892938 175.317975 
" clip-path="url(#pe58ef11237)" style="fill: none; stroke: #ff0000; stroke-linecap: square"/>
   </g>
   <g id="line2d_91">
    <path d="M 280.165408 273.773275 
L 244.02428 252.298171 
" clip-path="url(#pe58ef11237)" style="fill: none; stroke-dasharray: 1,1.65; stroke-dashoffset: 0; stroke: #000000"/>
   </g>
   <g id="line2d_92">
    <path d="M 330.744504 253.037229 
L 296.029098 231.390521 
" clip-path="url(#pe58ef11237)" style="fill: none; stroke: #000000; stroke-linecap: square"/>
   </g>
   <g id="line2d_93">
    <path d="M 244.02428 252.298171 
L 208.708261 231.313347 
" clip-path="url(#pe58ef11237)" style="fill: none; stroke-dasharray: 1,1.65; stroke-dashoffset: 0; stroke: #000000"/>
   </g>
   <g id="line2d_94">
    <path d="M 296.029098 231.390521 
L 261.949644 210.314966 
" clip-path="url(#pe58ef11237)" style="fill: none; stroke: #000000; stroke-linecap: square"/>
   </g>
   <g id="line2d_95">
    <path d="M 208.708261 231.313347 
L 174.189414 210.802204 
" clip-path="url(#pe58ef11237)" style="fill: none; stroke-dasharray: 1,1.65; stroke-dashoffset: 0; stroke: #000000"/>
   </g>
   <g id="line2d_96">
    <path d="M 261.949644 210.314966 
L 228.362369 189.835201 
" clip-path="url(#pe58ef11237)" style="fill: none; stroke: #000000; stroke-linecap: square"/>
   </g>
   <g id="line2d_97">
    <path d="M 174.189414 210.802204 
L 140.441049 190.748883 
" clip-path="url(#pe58ef11237)" style="fill: none; stroke-dasharray: 1,1.65; stroke-dashoffset: 0; stroke: #000000"/>
   </g>
   <g id="line2d_98">
    <path d="M 228.362369 189.835201 
L 195.24214 169.927188 
" clip-path="url(#pe58ef11237)" style="fill: none; stroke: #000000; stroke-linecap: square"/>
   </g>
   <g id="line2d_99">
    <path d="M 140.441049 190.748883 
L 107.437655 171.138224 
" clip-path="url(#pe58ef11237)" style="fill: none; stroke-dasharray: 1,1.65; stroke-dashoffset: 0; stroke: #000000"/>
   </g>
   <g id="line2d_100">
    <path d="M 195.24214 169.927188 
L 162.682105 150.524171 
" clip-path="url(#pe58ef11237)" style="fill: none; stroke: #000000; stroke-linecap: square"/>
   </g>
   <g id="line2d_101">
    <path d="M 280.596131 274.029211 
L 334.507652 251.921657 
" clip-path="url(#pe58ef11237)" style="fill: none; stroke-dasharray: 1,1.65; stroke-dashoffset: 0; stroke: #808080"/>
   </g>
   <g id="line2d_102">
    <path d="M 331.179485 253.285474 
L 382.935008 232.300969 
" clip-path="url(#pe58ef11237)" style="fill: none; stroke: #808080; stroke-linecap: square"/>
   </g>
   <g id="line2d_103">
    <path d="M 280.596131 274.029211 
L 225.371893 296.675073 
" clip-path="url(#pe58ef11237)" style="fill: none; stroke-dasharray: 1,1.65; stroke-dashoffset: 0; stroke: #808080"/>
   </g>
   <g id="line2d_104">
    <path d="M 331.179485 253.285474 
L 278.124341 274.796915 
" clip-path="url(#pe58ef11237)" style="fill: none; stroke: #808080; stroke-linecap: square"/>
   </g>
   <g id="line2d_105">
    <path d="M 280.165408 273.773275 
L 334.074718 251.671768 
" clip-path="url(#pe58ef11237)" style="fill: none; stroke-dasharray: 1,1.65; stroke-dashoffset: 0; stroke: #808080"/>
   </g>
   <g id="line2d_106">
    <path d="M 330.744504 253.037229 
L 384.406433 233.131574 
" clip-path="url(#pe58ef11237)" style="fill: none; stroke: #808080; stroke-linecap: square"/>
   </g>
   <g id="line2d_107">
    <path d="M 280.165408 273.773275 
L 224.943618 296.412868 
" clip-path="url(#pe58ef11237)" style="fill: none; stroke-dasharray: 1,1.65; stroke-dashoffset: 0; stroke: #808080"/>
   </g>
   <g id="line2d_108">
    <path d="M 330.744504 253.037229 
L 275.800951 273.418297 
" clip-path="url(#pe58ef11237)" style="fill: none; stroke: #808080; stroke-linecap: square"/>
   </g>
   <g id="line2d_109">
    <path d="M 474.808366 389.430369 
L 512.702907 373.280514 
" clip-path="url(#pe58ef11237)" style="fill: none; stroke-dasharray: 1,1.65; stroke-dashoffset: 0; stroke: #808080"/>
   </g>
   <g id="line2d_110">
    <path d="M 531.985201 363.414488 
L 568.172726 347.914538 
" clip-path="url(#pe58ef11237)" style="fill: none; stroke: #808080; stroke-linecap: square"/>
   </g>
   <g id="line2d_111">
    <path d="M 474.808366 389.430369 
L 490.888658 383.211388 
" clip-path="url(#pe58ef11237)" style="fill: none; stroke-dasharray: 1,1.65; stroke-dashoffset: 0; stroke: #808080"/>
   </g>
   <g id="line2d_112">
    <path d="M 531.985201 363.414488 
L 547.099113 357.564105 
" clip-path="url(#pe58ef11237)" style="fill: none; stroke: #808080; stroke-linecap: square"/>
   </g>
   <g id="line2d_113">
    <path d="M 474.808366 389.430369 
L 468.85215 393.243445 
" clip-path="url(#pe58ef11237)" style="fill: none; stroke-dasharray: 1,1.65; stroke-dashoffset: 0; stroke: #808080"/>
   </g>
   <g id="line2d_114">
    <path d="M 531.985201 363.414488 
L 525.810554 367.312096 
" clip-path="url(#pe58ef11237)" style="fill: none; stroke: #808080; stroke-linecap: square"/>
   </g>
   <g id="line2d_115">
    <path d="M 474.808366 389.430369 
L 446.58997 403.378239 
" clip-path="url(#pe58ef11237)" style="fill: none; stroke-dasharray: 1,1.65; stroke-dashoffset: 0; stroke: #808080"/>
   </g>
   <g id="line2d_116">
    <path d="M 531.985201 363.414488 
L 504.303744 377.160023 
" clip-path="url(#pe58ef11237)" style="fill: none; stroke: #808080; stroke-linecap: square"/>
   </g>
   <g id="line2d_117">
    <path d="M 474.808366 389.430369 
L 424.098631 413.617356 
" clip-path="url(#pe58ef11237)" style="fill: none; stroke-dasharray: 1,1.65; stroke-dashoffset: 0; stroke: #808080"/>
   </g>
   <g id="line2d_118">
    <path d="M 531.985201 363.414488 
L 482.575309 387.109432 
" clip-path="url(#pe58ef11237)" style="fill: none; stroke: #808080; stroke-linecap: square"/>
   </g>
   <g id="line2d_119">
    <path d="M 280.596131 274.029211 
L 328.742891 266.086689 
" clip-path="url(#pe58ef11237)" style="fill: none; stroke-dasharray: 1,1.65; stroke-dashoffset: 0; stroke: #808080"/>
   </g>
   <g id="line2d_120">
    <path d="M 331.179485 253.285474 
L 377.643529 246.08937 
" clip-path="url(#pe58ef11237)" style="fill: none; stroke: #808080; stroke-linecap: square"/>
   </g>
   <g id="line2d_121">
    <path d="M 280.596131 274.029211 
L 307.246659 274.958197 
" clip-path="url(#pe58ef11237)" style="fill: none; stroke-dasharray: 1,1.65; stroke-dashoffset: 0; stroke: #808080"/>
   </g>
   <g id="line2d_122">
    <path d="M 331.179485 253.285474 
L 357.01086 254.512457 
" clip-path="url(#pe58ef11237)" style="fill: none; stroke: #808080; stroke-linecap: square"/>
   </g>
   <g id="line2d_123">
    <path d="M 280.596131 274.029211 
L 285.543506 283.915102 
" clip-path="url(#pe58ef11237)" style="fill: none; stroke-dasharray: 1,1.65; stroke-dashoffset: 0; stroke: #808080"/>
   </g>
   <g id="line2d_124">
    <path d="M 331.179485 253.285474 
L 336.173454 263.019126 
" clip-path="url(#pe58ef11237)" style="fill: none; stroke: #808080; stroke-linecap: square"/>
   </g>
   <g id="line2d_125">
    <path d="M 280.596131 274.029211 
L 263.630429 292.958643 
" clip-path="url(#pe58ef11237)" style="fill: none; stroke-dasharray: 1,1.65; stroke-dashoffset: 0; stroke: #808080"/>
   </g>
   <g id="line2d_126">
    <path d="M 331.179485 253.285474 
L 315.12825 271.610627 
" clip-path="url(#pe58ef11237)" style="fill: none; stroke: #808080; stroke-linecap: square"/>
   </g>
   <g id="line2d_127">
    <path d="M 280.596131 274.029211 
L 241.50437 302.090082 
" clip-path="url(#pe58ef11237)" style="fill: none; stroke-dasharray: 1,1.65; stroke-dashoffset: 0; stroke: #808080"/>
   </g>
   <g id="line2d_128">
    <path d="M 331.179485 253.285474 
L 293.872123 280.288235 
" clip-path="url(#pe58ef11237)" style="fill: none; stroke: #808080; stroke-linecap: square"/>
   </g>
   <g id="line2d_129">
    <path d="M 280.165408 273.773275 
L 318.483228 260.108365 
" clip-path="url(#pe58ef11237)" style="fill: none; stroke-dasharray: 1,1.65; stroke-dashoffset: 0; stroke: #808080"/>
   </g>
   <g id="line2d_130">
    <path d="M 330.744504 253.037229 
L 368.861723 241.107075 
" clip-path="url(#pe58ef11237)" style="fill: none; stroke: #808080; stroke-linecap: square"/>
   </g>
   <g id="line2d_131">
    <path d="M 280.165408 273.773275 
L 297.007729 268.922558 
" clip-path="url(#pe58ef11237)" style="fill: none; stroke-dasharray: 1,1.65; stroke-dashoffset: 0; stroke: #808080"/>
   </g>
   <g id="line2d_132">
    <path d="M 330.744504 253.037229 
L 347.483872 249.047445 
" clip-path="url(#pe58ef11237)" style="fill: none; stroke: #808080; stroke-linecap: square"/>
   </g>
   <g id="line2d_133">
    <path d="M 280.165408 273.773275 
L 275.326183 277.82132 
" clip-path="url(#pe58ef11237)" style="fill: none; stroke-dasharray: 1,1.65; stroke-dashoffset: 0; stroke: #808080"/>
   </g>
   <g id="line2d_134">
    <path d="M 330.744504 253.037229 
L 325.904761 257.062569 
" clip-path="url(#pe58ef11237)" style="fill: none; stroke: #808080; stroke-linecap: square"/>
   </g>
   <g id="line2d_135">
    <path d="M 280.165408 273.773275 
L 253.435609 286.805873 
" clip-path="url(#pe58ef11237)" style="fill: none; stroke-dasharray: 1,1.65; stroke-dashoffset: 0; stroke: #808080"/>
   </g>
   <g id="line2d_136">
    <path d="M 330.744504 253.037229 
L 304.121534 265.153508 
" clip-path="url(#pe58ef11237)" style="fill: none; stroke: #808080; stroke-linecap: square"/>
   </g>
   <g id="line2d_137">
    <path d="M 280.165408 273.773275 
L 231.332971 295.877464 
" clip-path="url(#pe58ef11237)" style="fill: none; stroke-dasharray: 1,1.65; stroke-dashoffset: 0; stroke: #808080"/>
   </g>
   <g id="line2d_138">
    <path d="M 330.744504 253.037229 
L 282.131281 273.321342 
" clip-path="url(#pe58ef11237)" style="fill: none; stroke: #808080; stroke-linecap: square"/>
   </g>
   <g id="line2d_139">
    <path d="M 107.437655 171.138224 
L 154.64311 164.638439 
" clip-path="url(#pe58ef11237)" style="fill: none; stroke-dasharray: 1,1.65; stroke-dashoffset: 0; stroke: #808080"/>
   </g>
   <g id="line2d_140">
    <path d="M 162.682105 150.524171 
L 209.026007 144.700229 
" clip-path="url(#pe58ef11237)" style="fill: none; stroke: #808080; stroke-linecap: square"/>
   </g>
   <g id="line2d_141">
    <path d="M 107.437655 171.138224 
L 133.541602 172.56263 
" clip-path="url(#pe58ef11237)" style="fill: none; stroke-dasharray: 1,1.65; stroke-dashoffset: 0; stroke: #808080"/>
   </g>
   <g id="line2d_142">
    <path d="M 162.682105 150.524171 
L 188.273409 152.252524 
" clip-path="url(#pe58ef11237)" style="fill: none; stroke: #808080; stroke-linecap: square"/>
   </g>
   <g id="line2d_143">
    <path d="M 107.437655 171.138224 
L 112.248201 180.558883 
" clip-path="url(#pe58ef11237)" style="fill: none; stroke-dasharray: 1,1.65; stroke-dashoffset: 0; stroke: #808080"/>
   </g>
   <g id="line2d_144">
    <path d="M 162.682105 150.524171 
L 167.33537 159.872305 
" clip-path="url(#pe58ef11237)" style="fill: none; stroke: #808080; stroke-linecap: square"/>
   </g>
   <g id="line2d_145">
    <path d="M 107.437655 171.138224 
L 90.760275 188.628185 
" clip-path="url(#pe58ef11237)" style="fill: none; stroke-dasharray: 1,1.65; stroke-dashoffset: 0; stroke: #808080"/>
   </g>
   <g id="line2d_146">
    <path d="M 162.682105 150.524171 
L 146.209394 167.560481 
" clip-path="url(#pe58ef11237)" style="fill: none; stroke: #808080; stroke-linecap: square"/>
   </g>
   <g id="line2d_147">
    <path d="M 107.437655 171.138224 
L 69.075148 196.771541 
" clip-path="url(#pe58ef11237)" style="fill: none; stroke-dasharray: 1,1.65; stroke-dashoffset: 0; stroke: #808080"/>
   </g>
   <g id="line2d_148">
    <path d="M 162.682105 150.524171 
L 124.892938 175.317975 
" clip-path="url(#pe58ef11237)" style="fill: none; stroke: #808080; stroke-linecap: square"/>
   </g>
   <g id="line2d_149">
    <path d="M 323.594315 273.30966 
L 328.742539 266.269656 
" clip-path="url(#pe58ef11237)" style="fill: none; stroke-dasharray: 1,1.65; stroke-dashoffset: 0; stroke: #808080"/>
   </g>
   <g id="line2d_150">
    <path d="M 331.526538 271.012022 
L 337.03563 263.835742 
" clip-path="url(#pe58ef11237)" style="fill: none; stroke: #808080; stroke-linecap: square"/>
   </g>
   <g id="line2d_151">
    <path d="M 323.594315 273.30966 
L 318.483205 260.290933 
" clip-path="url(#pe58ef11237)" style="fill: none; stroke-dasharray: 1,1.65; stroke-dashoffset: 0; stroke: #808080"/>
   </g>
   <g id="line2d_152">
    <path d="M 331.526538 271.012022 
L 326.771115 257.876687 
" clip-path="url(#pe58ef11237)" style="fill: none; stroke: #808080; stroke-linecap: square"/>
   </g>
   <g id="line2d_153">
    <path d="M 302.147068 282.185288 
L 307.246999 275.141755 
" clip-path="url(#pe58ef11237)" style="fill: none; stroke-dasharray: 1,1.65; stroke-dashoffset: 0; stroke: #808080"/>
   </g>
   <g id="line2d_154">
    <path d="M 310.136074 279.089012 
L 315.556743 271.922575 
" clip-path="url(#pe58ef11237)" style="fill: none; stroke: #808080; stroke-linecap: square"/>
   </g>
   <g id="line2d_155">
    <path d="M 302.147068 282.185288 
L 297.008397 269.105714 
" clip-path="url(#pe58ef11237)" style="fill: none; stroke-dasharray: 1,1.65; stroke-dashoffset: 0; stroke: #808080"/>
   </g>
   <g id="line2d_156">
    <path d="M 310.136074 279.089012 
L 305.311292 265.908076 
" clip-path="url(#pe58ef11237)" style="fill: none; stroke: #808080; stroke-linecap: square"/>
   </g>
   <g id="line2d_157">
    <path d="M 280.494082 291.146059 
L 285.544551 284.099253 
" clip-path="url(#pe58ef11237)" style="fill: none; stroke-dasharray: 1,1.65; stroke-dashoffset: 0; stroke: #808080"/>
   </g>
   <g id="line2d_158">
    <path d="M 288.569711 287.803396 
L 293.624942 280.763224 
" clip-path="url(#pe58ef11237)" style="fill: none; stroke: #808080; stroke-linecap: square"/>
   </g>
   <g id="line2d_159">
    <path d="M 280.494082 291.146059 
L 275.327554 278.005067 
" clip-path="url(#pe58ef11237)" style="fill: none; stroke-dasharray: 1,1.65; stroke-dashoffset: 0; stroke: #808080"/>
   </g>
   <g id="line2d_160">
    <path d="M 288.569711 287.803396 
L 283.400688 274.69065 
" clip-path="url(#pe58ef11237)" style="fill: none; stroke: #808080; stroke-linecap: square"/>
   </g>
   <g id="line2d_161">
    <path d="M 258.632381 300.193203 
L 263.632193 293.143389 
" clip-path="url(#pe58ef11237)" style="fill: none; stroke-dasharray: 1,1.65; stroke-dashoffset: 0; stroke: #808080"/>
   </g>
   <g id="line2d_162">
    <path d="M 266.772423 296.61135 
L 272.100054 289.43388 
" clip-path="url(#pe58ef11237)" style="fill: none; stroke: #808080; stroke-linecap: square"/>
   </g>
   <g id="line2d_163">
    <path d="M 258.632381 300.193203 
L 253.437698 286.990214 
" clip-path="url(#pe58ef11237)" style="fill: none; stroke-dasharray: 1,1.65; stroke-dashoffset: 0; stroke: #808080"/>
   </g>
   <g id="line2d_164">
    <path d="M 266.772423 296.61135 
L 261.897225 283.304108 
" clip-path="url(#pe58ef11237)" style="fill: none; stroke: #808080; stroke-linecap: square"/>
   </g>
   <g id="line2d_165">
    <path d="M 236.558934 309.327975 
L 241.506867 302.275427 
" clip-path="url(#pe58ef11237)" style="fill: none; stroke-dasharray: 1,1.65; stroke-dashoffset: 0; stroke: #808080"/>
   </g>
   <g id="line2d_166">
    <path d="M 244.787985 304.916923 
L 250.113821 297.712814 
" clip-path="url(#pe58ef11237)" style="fill: none; stroke: #808080; stroke-linecap: square"/>
   </g>
   <g id="line2d_167">
    <path d="M 236.558934 309.327975 
L 231.335791 296.062402 
" clip-path="url(#pe58ef11237)" style="fill: none; stroke-dasharray: 1,1.65; stroke-dashoffset: 0; stroke: #808080"/>
   </g>
   <g id="line2d_168">
    <path d="M 244.787985 304.916923 
L 239.932591 291.525426 
" clip-path="url(#pe58ef11237)" style="fill: none; stroke: #808080; stroke-linecap: square"/>
   </g>
   <g id="line2d_169">
    <path d="M 302.147068 282.185288 
L 302.174656 292.216199 
" clip-path="url(#pe58ef11237)" style="fill: none; stroke-dasharray: 1,1.65; stroke-dashoffset: 0; stroke: #808080"/>
   </g>
   <g id="line2d_170">
    <path d="M 310.136074 279.089012 
L 309.847417 289.233061 
" clip-path="url(#pe58ef11237)" style="fill: none; stroke: #808080; stroke-linecap: square"/>
   </g>
   <g id="line2d_171">
    <path d="M 258.632381 300.193203 
L 258.737798 310.288531 
" clip-path="url(#pe58ef11237)" style="fill: none; stroke-dasharray: 1,1.65; stroke-dashoffset: 0; stroke: #808080"/>
   </g>
   <g id="line2d_172">
    <path d="M 266.772423 296.61135 
L 266.555302 306.823641 
" clip-path="url(#pe58ef11237)" style="fill: none; stroke: #808080; stroke-linecap: square"/>
   </g>
   <g id="line2d_173">
    <path d="M 468.846966 393.43461 
L 512.696285 373.470429 
" clip-path="url(#pe58ef11237)" style="fill: none; stroke-dasharray: 1,1.65; stroke-dashoffset: 0; stroke: #808080"/>
   </g>
   <g id="line2d_174">
    <path d="M 481.391611 387.722997 
L 524.979509 368.041942 
" clip-path="url(#pe58ef11237)" style="fill: none; stroke: #808080; stroke-linecap: square"/>
   </g>
   <g id="line2d_175">
    <path d="M 468.846966 393.43461 
L 490.882747 383.401927 
" clip-path="url(#pe58ef11237)" style="fill: none; stroke-dasharray: 1,1.65; stroke-dashoffset: 0; stroke: #808080"/>
   </g>
   <g id="line2d_176">
    <path d="M 481.391611 387.722997 
L 503.296047 377.832582 
" clip-path="url(#pe58ef11237)" style="fill: none; stroke: #808080; stroke-linecap: square"/>
   </g>
   <g id="line2d_177">
    <path d="M 468.846966 393.43461 
L 468.846966 393.43461 
" clip-path="url(#pe58ef11237)" style="fill: none; stroke-dasharray: 1,1.65; stroke-dashoffset: 0; stroke: #808080"/>
   </g>
   <g id="line2d_178">
    <path d="M 481.391611 387.722997 
L 481.391611 387.722997 
" clip-path="url(#pe58ef11237)" style="fill: none; stroke: #808080; stroke-linecap: square"/>
   </g>
   <g id="line2d_179">
    <path d="M 468.846966 393.43461 
L 446.585526 403.570033 
" clip-path="url(#pe58ef11237)" style="fill: none; stroke-dasharray: 1,1.65; stroke-dashoffset: 0; stroke: #808080"/>
   </g>
   <g id="line2d_180">
    <path d="M 481.391611 387.722997 
L 459.262807 397.71472 
" clip-path="url(#pe58ef11237)" style="fill: none; stroke: #808080; stroke-linecap: square"/>
   </g>
   <g id="line2d_181">
    <path d="M 468.846966 393.43461 
L 424.094945 413.809782 
" clip-path="url(#pe58ef11237)" style="fill: none; stroke-dasharray: 1,1.65; stroke-dashoffset: 0; stroke: #808080"/>
   </g>
   <g id="line2d_182">
    <path d="M 481.391611 387.722997 
L 436.906168 407.809316 
" clip-path="url(#pe58ef11237)" style="fill: none; stroke: #808080; stroke-linecap: square"/>
   </g>
   <g id="line2d_183">
    <path d="M 112.254496 180.736021 
L 154.648061 164.814464 
" clip-path="url(#pe58ef11237)" style="fill: none; stroke-dasharray: 1,1.65; stroke-dashoffset: 0; stroke: #808080"/>
   </g>
   <g id="line2d_184">
    <path d="M 124.373586 176.184529 
L 166.557061 160.504557 
" clip-path="url(#pe58ef11237)" style="fill: none; stroke: #808080; stroke-linecap: square"/>
   </g>
   <g id="line2d_185">
    <path d="M 112.254496 180.736021 
L 133.54722 172.739211 
" clip-path="url(#pe58ef11237)" style="fill: none; stroke-dasharray: 1,1.65; stroke-dashoffset: 0; stroke: #808080"/>
   </g>
   <g id="line2d_186">
    <path d="M 124.373586 176.184529 
L 145.560822 168.309045 
" clip-path="url(#pe58ef11237)" style="fill: none; stroke: #808080; stroke-linecap: square"/>
   </g>
   <g id="line2d_187">
    <path d="M 112.254496 180.736021 
L 112.254496 180.736021 
" clip-path="url(#pe58ef11237)" style="fill: none; stroke-dasharray: 1,1.65; stroke-dashoffset: 0; stroke: #808080"/>
   </g>
   <g id="line2d_188">
    <path d="M 124.373586 176.184529 
L 124.373586 176.184529 
" clip-path="url(#pe58ef11237)" style="fill: none; stroke: #808080; stroke-linecap: square"/>
   </g>
   <g id="line2d_189">
    <path d="M 112.254496 180.736021 
L 90.76726 188.805884 
" clip-path="url(#pe58ef11237)" style="fill: none; stroke-dasharray: 1,1.65; stroke-dashoffset: 0; stroke: #808080"/>
   </g>
   <g id="line2d_190">
    <path d="M 124.373586 176.184529 
L 102.992735 184.131981 
" clip-path="url(#pe58ef11237)" style="fill: none; stroke: #808080; stroke-linecap: square"/>
   </g>
   <g id="line2d_191">
    <path d="M 112.254496 180.736021 
L 69.082836 196.949804 
" clip-path="url(#pe58ef11237)" style="fill: none; stroke-dasharray: 1,1.65; stroke-dashoffset: 0; stroke: #808080"/>
   </g>
   <g id="line2d_192">
    <path d="M 124.373586 176.184529 
L 81.415603 192.152392 
" clip-path="url(#pe58ef11237)" style="fill: none; stroke: #808080; stroke-linecap: square"/>
   </g>
   <g id="text_1">
    <!-- Mode 2 -->
    <g transform="translate(67.68 37.44) scale(0.2 -0.2)">
     <defs>
      <path id="TimesNewRomanPS-BoldMT-4d" d="M 3050 1444 
L 4200 4238 
L 5925 4238 
L 5925 4122 
L 5788 4122 
Q 5600 4122 5488 4056 
Q 5409 4013 5363 3909 
Q 5328 3834 5328 3519 
L 5328 725 
Q 5328 400 5362 319 
Q 5397 238 5503 177 
Q 5609 116 5788 116 
L 5925 116 
L 5925 0 
L 3713 0 
L 3713 116 
L 3850 116 
Q 4038 116 4150 181 
Q 4228 225 4275 331 
Q 4309 406 4309 725 
L 4309 3866 
L 2684 0 
L 2609 0 
L 959 3838 
L 959 853 
Q 959 541 975 469 
Q 1016 313 1152 214 
Q 1288 116 1578 116 
L 1578 0 
L 128 0 
L 128 116 
L 172 116 
Q 313 113 434 161 
Q 556 209 618 290 
Q 681 372 716 519 
Q 722 553 722 838 
L 722 3519 
Q 722 3841 687 3920 
Q 653 4000 547 4061 
Q 441 4122 263 4122 
L 128 4122 
L 128 4238 
L 1859 4238 
L 3050 1444 
z
" transform="scale(0.015625)"/>
      <path id="TimesNewRomanPS-BoldMT-6f" d="M 1594 3009 
Q 1975 3009 2303 2812 
Q 2631 2616 2801 2253 
Q 2972 1891 2972 1459 
Q 2972 838 2656 419 
Q 2275 -88 1603 -88 
Q 944 -88 587 375 
Q 231 838 231 1447 
Q 231 2075 595 2542 
Q 959 3009 1594 3009 
z
M 1606 2788 
Q 1447 2788 1333 2667 
Q 1219 2547 1183 2192 
Q 1147 1838 1147 1206 
Q 1147 872 1191 581 
Q 1225 359 1337 243 
Q 1450 128 1594 128 
Q 1734 128 1828 206 
Q 1950 313 1991 503 
Q 2053 800 2053 1703 
Q 2053 2234 1993 2432 
Q 1934 2631 1819 2722 
Q 1738 2788 1606 2788 
z
" transform="scale(0.015625)"/>
      <path id="TimesNewRomanPS-BoldMT-64" d="M 3056 4238 
L 3056 875 
Q 3056 534 3075 472 
Q 3100 369 3170 319 
Q 3241 269 3416 256 
L 3416 153 
L 2181 -88 
L 2181 375 
Q 1959 106 1786 9 
Q 1613 -88 1394 -88 
Q 834 -88 509 413 
Q 247 819 247 1409 
Q 247 1881 409 2254 
Q 572 2628 855 2818 
Q 1138 3009 1463 3009 
Q 1672 3009 1834 2928 
Q 1997 2847 2181 2644 
L 2181 3525 
Q 2181 3859 2153 3928 
Q 2116 4019 2041 4062 
Q 1966 4106 1759 4106 
L 1759 4238 
L 3056 4238 
z
M 2181 2256 
Q 1950 2700 1616 2700 
Q 1500 2700 1425 2638 
Q 1309 2541 1236 2297 
Q 1163 2053 1163 1550 
Q 1163 997 1244 731 
Q 1325 466 1466 347 
Q 1538 288 1663 288 
Q 1938 288 2181 719 
L 2181 2256 
z
" transform="scale(0.015625)"/>
      <path id="TimesNewRomanPS-BoldMT-65" d="M 2691 1566 
L 1088 1566 
Q 1116 984 1397 647 
Q 1613 388 1916 388 
Q 2103 388 2256 492 
Q 2409 597 2584 869 
L 2691 800 
Q 2453 316 2165 114 
Q 1878 -88 1500 -88 
Q 850 -88 516 413 
Q 247 816 247 1413 
Q 247 2144 642 2576 
Q 1038 3009 1569 3009 
Q 2013 3009 2339 2645 
Q 2666 2281 2691 1566 
z
M 1922 1775 
Q 1922 2278 1867 2465 
Q 1813 2653 1697 2750 
Q 1631 2806 1522 2806 
Q 1359 2806 1256 2647 
Q 1072 2369 1072 1884 
L 1072 1775 
L 1922 1775 
z
" transform="scale(0.015625)"/>
      <path id="TimesNewRomanPS-BoldMT-20" transform="scale(0.015625)"/>
      <path id="TimesNewRomanPS-BoldMT-32" d="M 2650 0 
L 156 0 
L 156 69 
Q 1303 1434 1548 1906 
Q 1794 2378 1794 2828 
Q 1794 3156 1591 3373 
Q 1388 3591 1094 3591 
Q 613 3591 347 3109 
L 231 3150 
Q 400 3750 744 4037 
Q 1088 4325 1538 4325 
Q 1859 4325 2125 4175 
Q 2391 4025 2541 3764 
Q 2691 3503 2691 3275 
Q 2691 2859 2459 2431 
Q 2144 1853 1081 819 
L 1997 819 
Q 2334 819 2436 847 
Q 2538 875 2603 942 
Q 2669 1009 2775 1225 
L 2888 1225 
L 2650 0 
z
" transform="scale(0.015625)"/>
     </defs>
     <use xlink:href="#TimesNewRomanPS-BoldMT-4d"/>
     <use xlink:href="#TimesNewRomanPS-BoldMT-6f" x="94.384766"/>
     <use xlink:href="#TimesNewRomanPS-BoldMT-64" x="144.384766"/>
     <use xlink:href="#TimesNewRomanPS-BoldMT-65" x="200"/>
     <use xlink:href="#TimesNewRomanPS-BoldMT-20" x="244.384766"/>
     <use xlink:href="#TimesNewRomanPS-BoldMT-32" x="269.384766"/>
    </g>
   </g>
   <g id="text_2">
    <!-- T = 0.379 s -->
    <g transform="translate(67.68 67.68) scale(0.2 -0.2)">
     <defs>
      <path id="TimesNewRomanPS-BoldMT-54" d="M 4038 4238 
L 4038 3091 
L 3925 3091 
Q 3825 3488 3703 3661 
Q 3581 3834 3369 3938 
Q 3250 3994 2953 3994 
L 2638 3994 
L 2638 725 
Q 2638 400 2673 319 
Q 2709 238 2814 177 
Q 2919 116 3100 116 
L 3241 116 
L 3241 0 
L 1022 0 
L 1022 116 
L 1163 116 
Q 1347 116 1459 181 
Q 1541 225 1588 331 
Q 1622 406 1622 725 
L 1622 3994 
L 1316 3994 
Q 888 3994 694 3813 
Q 422 3559 350 3091 
L 231 3091 
L 231 4238 
L 4038 4238 
z
" transform="scale(0.015625)"/>
      <path id="TimesNewRomanPS-BoldMT-3d" d="M 125 2825 
L 3544 2825 
L 3544 2419 
L 125 2419 
L 125 2825 
z
M 125 1803 
L 3544 1803 
L 3544 1397 
L 125 1397 
L 125 1803 
z
" transform="scale(0.015625)"/>
      <path id="TimesNewRomanPS-BoldMT-30" d="M 2966 2119 
Q 2966 1484 2788 934 
Q 2681 597 2501 381 
Q 2322 166 2094 39 
Q 1866 -88 1597 -88 
Q 1291 -88 1044 68 
Q 797 225 606 516 
Q 469 728 366 1081 
Q 231 1559 231 2069 
Q 231 2759 425 3338 
Q 584 3816 909 4070 
Q 1234 4325 1597 4325 
Q 1966 4325 2286 4073 
Q 2606 3822 2756 3397 
Q 2966 2813 2966 2119 
z
M 2003 2125 
Q 2003 3238 1991 3422 
Q 1959 3856 1841 4009 
Q 1763 4109 1588 4109 
Q 1453 4109 1375 4034 
Q 1259 3925 1218 3648 
Q 1178 3372 1178 1719 
Q 1178 819 1241 513 
Q 1288 291 1375 216 
Q 1463 141 1606 141 
Q 1763 141 1841 241 
Q 1972 416 1991 781 
L 2003 2125 
z
" transform="scale(0.015625)"/>
      <path id="TimesNewRomanPS-BoldMT-2e" d="M 800 963 
Q 1019 963 1170 809 
Q 1322 656 1322 441 
Q 1322 225 1169 73 
Q 1016 -78 800 -78 
Q 584 -78 432 73 
Q 281 225 281 441 
Q 281 656 432 809 
Q 584 963 800 963 
z
" transform="scale(0.015625)"/>
      <path id="TimesNewRomanPS-BoldMT-33" d="M 947 2125 
L 947 2234 
Q 1303 2338 1440 2427 
Q 1578 2516 1678 2698 
Q 1778 2881 1778 3069 
Q 1778 3328 1589 3514 
Q 1400 3700 1119 3700 
Q 681 3700 375 3238 
L 259 3278 
Q 484 3800 836 4062 
Q 1188 4325 1619 4325 
Q 2059 4325 2345 4056 
Q 2631 3788 2631 3428 
Q 2631 3194 2498 2976 
Q 2366 2759 2081 2594 
Q 2447 2416 2639 2155 
Q 2831 1894 2831 1500 
Q 2831 838 2351 373 
Q 1872 -91 1066 -91 
Q 528 -91 281 88 
Q 103 213 103 409 
Q 103 553 206 654 
Q 309 756 444 756 
Q 547 756 638 713 
Q 688 688 992 439 
Q 1297 191 1563 191 
Q 1794 191 1959 373 
Q 2125 556 2125 838 
Q 2125 1266 1825 1627 
Q 1525 1988 947 2125 
z
" transform="scale(0.015625)"/>
      <path id="TimesNewRomanPS-BoldMT-37" d="M 1134 -88 
L 2288 3409 
L 1409 3409 
Q 894 3409 634 3275 
Q 453 3181 334 2922 
L 216 2922 
L 522 4238 
L 3047 4238 
L 1625 -88 
L 1134 -88 
z
" transform="scale(0.015625)"/>
      <path id="TimesNewRomanPS-BoldMT-39" d="M 197 -88 
L 197 0 
Q 716 119 1077 350 
Q 1438 581 1648 922 
Q 1859 1263 1944 1706 
Q 1750 1606 1614 1567 
Q 1478 1528 1328 1528 
Q 847 1528 526 1875 
Q 206 2222 206 2825 
Q 206 3244 379 3592 
Q 553 3941 875 4133 
Q 1197 4325 1544 4325 
Q 1916 4325 2247 4112 
Q 2578 3900 2775 3497 
Q 2972 3094 2972 2578 
Q 2972 1909 2651 1296 
Q 2331 684 1697 314 
Q 1063 -56 197 -88 
z
M 1991 1969 
Q 2022 2319 2022 2584 
Q 2022 3153 1891 3644 
Q 1816 3916 1669 4044 
Q 1591 4113 1466 4113 
Q 1309 4113 1222 3978 
Q 1100 3794 1100 3275 
Q 1100 2409 1306 2081 
Q 1441 1869 1669 1869 
Q 1791 1869 1991 1969 
z
" transform="scale(0.015625)"/>
      <path id="TimesNewRomanPS-BoldMT-73" d="M 2063 3003 
L 2109 2006 
L 2003 2006 
Q 1813 2450 1608 2612 
Q 1403 2775 1200 2775 
Q 1072 2775 981 2689 
Q 891 2603 891 2491 
Q 891 2406 953 2328 
Q 1053 2200 1512 1889 
Q 1972 1578 2117 1361 
Q 2263 1144 2263 875 
Q 2263 631 2141 397 
Q 2019 163 1797 37 
Q 1575 -88 1306 -88 
Q 1097 -88 747 44 
Q 653 78 619 78 
Q 516 78 447 -78 
L 344 -78 
L 294 972 
L 400 972 
Q 541 559 786 353 
Q 1031 147 1250 147 
Q 1400 147 1495 239 
Q 1591 331 1591 463 
Q 1591 613 1497 722 
Q 1403 831 1078 1053 
Q 600 1384 459 1559 
Q 253 1816 253 2125 
Q 253 2463 486 2736 
Q 719 3009 1159 3009 
Q 1397 3009 1619 2894 
Q 1703 2847 1756 2847 
Q 1813 2847 1847 2870 
Q 1881 2894 1956 3003 
L 2063 3003 
z
" transform="scale(0.015625)"/>
     </defs>
     <use xlink:href="#TimesNewRomanPS-BoldMT-54"/>
     <use xlink:href="#TimesNewRomanPS-BoldMT-20" x="64.949219"/>
     <use xlink:href="#TimesNewRomanPS-BoldMT-3d" x="89.949219"/>
     <use xlink:href="#TimesNewRomanPS-BoldMT-20" x="146.931641"/>
     <use xlink:href="#TimesNewRomanPS-BoldMT-30" x="171.931641"/>
     <use xlink:href="#TimesNewRomanPS-BoldMT-2e" x="221.931641"/>
     <use xlink:href="#TimesNewRomanPS-BoldMT-33" x="246.931641"/>
     <use xlink:href="#TimesNewRomanPS-BoldMT-37" x="296.931641"/>
     <use xlink:href="#TimesNewRomanPS-BoldMT-39" x="346.931641"/>
     <use xlink:href="#TimesNewRomanPS-BoldMT-20" x="396.931641"/>
     <use xlink:href="#TimesNewRomanPS-BoldMT-73" x="421.931641"/>
    </g>
   </g>
  </g>
 </g>
 <defs>
  <clipPath id="pe58ef11237">
   <rect x="7.2" y="7.2" width="604.8" height="604.8"/>
  </clipPath>
 </defs>
</svg>
