<?xml version="1.0" encoding="utf-8" standalone="no"?>
<!DOCTYPE svg PUBLIC "-//W3C//DTD SVG 1.1//EN"
  "http://www.w3.org/Graphics/SVG/1.1/DTD/svg11.dtd">
<svg xmlns:xlink="http://www.w3.org/1999/xlink" width="619.2pt" height="619.2pt" viewBox="0 0 619.2 619.2" xmlns="http://www.w3.org/2000/svg" version="1.1">
 <metadata>
  <rdf:RDF xmlns:dc="http://purl.org/dc/elements/1.1/" xmlns:cc="http://creativecommons.org/ns#" xmlns:rdf="http://www.w3.org/1999/02/22-rdf-syntax-ns#">
   <cc:Work>
    <dc:type rdf:resource="http://purl.org/dc/dcmitype/StillImage"/>
    <dc:date>2025-04-06T06:33:35.591769</dc:date>
    <dc:format>image/svg+xml</dc:format>
    <dc:creator>
     <cc:Agent>
      <dc:title>Matplotlib v3.8.4, https://matplotlib.org/</dc:title>
     </cc:Agent>
    </dc:creator>
   </cc:Work>
  </rdf:RDF>
 </metadata>
 <defs>
  <style type="text/css">*{stroke-linejoin: round; stroke-linecap: butt}</style>
 </defs>
 <g id="figure_1">
  <g id="patch_1">
   <path d="M 0 619.2 
L 619.2 619.2 
L 619.2 0 
L 0 0 
z
" style="fill: #ffffff"/>
  </g>
  <g id="patch_2">
   <path d="M 7.2 612 
L 612 612 
L 612 7.2 
L 7.2 7.2 
z
" style="fill: #ffffff"/>
  </g>
  <g id="axes_1">
   <g id="line2d_1">
    <path d="M 320.067524 322.765117 
L 320.087541 273.553129 
" clip-path="url(#pe37b3d07d2)" style="fill: none; stroke-dasharray: 1,1.65; stroke-dashoffset: 0; stroke: #000000"/>
   </g>
   <g id="line2d_2">
    <path d="M 320.067524 322.765117 
L 333.040474 281.151538 
" clip-path="url(#pe37b3d07d2)" style="fill: none; stroke: #000000; stroke-linecap: square"/>
   </g>
   <g id="line2d_3">
    <path d="M 471.216276 363.495763 
L 471.216276 363.495763 
" clip-path="url(#pe37b3d07d2)" style="fill: none; stroke-dasharray: 1,1.65; stroke-dashoffset: 0; stroke: #008000"/>
   </g>
   <g id="line2d_4">
    <path d="M 471.216276 363.495763 
L 475.414811 365.963956 
" clip-path="url(#pe37b3d07d2)" style="fill: none; stroke: #008000; stroke-linecap: square"/>
   </g>
   <g id="line2d_5">
    <path d="M 349.347358 237.080871 
L 348.953241 236.856271 
" clip-path="url(#pe37b3d07d2)" style="fill: none; stroke-dasharray: 1,1.65; stroke-dashoffset: 0; stroke: #0000ff"/>
   </g>
   <g id="line2d_6">
    <path d="M 379.485939 260.145124 
L 379.216781 248.203891 
" clip-path="url(#pe37b3d07d2)" style="fill: none; stroke: #0000ff; stroke-linecap: square"/>
   </g>
   <g id="line2d_7">
    <path d="M 510.701632 345.780701 
L 510.707537 345.608746 
" clip-path="url(#pe37b3d07d2)" style="fill: none; stroke-dasharray: 1,1.65; stroke-dashoffset: 0; stroke: #ff0000"/>
   </g>
   <g id="line2d_8">
    <path d="M 514.911415 348.204253 
L 544.127798 364.841942 
" clip-path="url(#pe37b3d07d2)" style="fill: none; stroke: #ff0000; stroke-linecap: square"/>
   </g>
   <g id="line2d_9">
    <path d="M 343.300253 254.886214 
L 339.448738 256.471266 
" clip-path="url(#pe37b3d07d2)" style="fill: none; stroke-dasharray: 1,1.65; stroke-dashoffset: 0; stroke: #000000"/>
   </g>
   <g id="line2d_10">
    <path d="M 360.439403 264.767191 
L 356.57069 266.362754 
" clip-path="url(#pe37b3d07d2)" style="fill: none; stroke: #000000; stroke-linecap: square"/>
   </g>
   <g id="line2d_11">
    <path d="M 510.701632 345.780701 
L 510.707537 345.608746 
" clip-path="url(#pe37b3d07d2)" style="fill: none; stroke: #ff0000; stroke-linecap: square"/>
   </g>
   <g id="line2d_12">
    <path d="M 514.911415 348.204253 
L 544.127798 364.841942 
" clip-path="url(#pe37b3d07d2)" style="fill: none; stroke: #ff0000; stroke-linecap: square"/>
   </g>
   <g id="line2d_13">
    <path d="M 281.250648 339.243246 
L 280.929256 289.747692 
" clip-path="url(#pe37b3d07d2)" style="fill: none; stroke-dasharray: 1,1.65; stroke-dashoffset: 0; stroke: #000000"/>
   </g>
   <g id="line2d_14">
    <path d="M 281.250648 339.243246 
L 293.834337 297.479457 
" clip-path="url(#pe37b3d07d2)" style="fill: none; stroke: #000000; stroke-linecap: square"/>
   </g>
   <g id="line2d_15">
    <path d="M 146.545618 172.902827 
L 146.545618 172.902827 
" clip-path="url(#pe37b3d07d2)" style="fill: none; stroke-dasharray: 1,1.65; stroke-dashoffset: 0; stroke: #008000"/>
   </g>
   <g id="line2d_16">
    <path d="M 146.545618 172.902827 
L 149.964884 174.906245 
" clip-path="url(#pe37b3d07d2)" style="fill: none; stroke: #008000; stroke-linecap: square"/>
   </g>
   <g id="line2d_17">
    <path d="M 251.011063 277.213007 
L 250.620653 276.978411 
" clip-path="url(#pe37b3d07d2)" style="fill: none; stroke-dasharray: 1,1.65; stroke-dashoffset: 0; stroke: #0000ff"/>
   </g>
   <g id="line2d_18">
    <path d="M 280.973439 301.133785 
L 280.502476 289.0073 
" clip-path="url(#pe37b3d07d2)" style="fill: none; stroke: #0000ff; stroke-linecap: square"/>
   </g>
   <g id="line2d_19">
    <path d="M 491.049062 354.597805 
L 491.05439 354.425337 
" clip-path="url(#pe37b3d07d2)" style="fill: none; stroke-dasharray: 1,1.65; stroke-dashoffset: 0; stroke: #ff0000"/>
   </g>
   <g id="line2d_20">
    <path d="M 495.25336 357.043524 
L 524.432312 373.835185 
" clip-path="url(#pe37b3d07d2)" style="fill: none; stroke: #ff0000; stroke-linecap: square"/>
   </g>
   <g id="line2d_21">
    <path d="M 339.448738 256.471266 
L 320.091249 264.437643 
" clip-path="url(#pe37b3d07d2)" style="fill: none; stroke-dasharray: 1,1.65; stroke-dashoffset: 0; stroke: #000000"/>
   </g>
   <g id="line2d_22">
    <path d="M 356.57069 266.362754 
L 337.134593 274.386653 
" clip-path="url(#pe37b3d07d2)" style="fill: none; stroke: #000000; stroke-linecap: square"/>
   </g>
   <g id="line2d_23">
    <path d="M 431.000046 381.538732 
L 431.003576 381.36471 
" clip-path="url(#pe37b3d07d2)" style="fill: none; stroke: #ff0000; stroke-linecap: square"/>
   </g>
   <g id="line2d_24">
    <path d="M 435.186192 384.05281 
L 464.241063 401.319379 
" clip-path="url(#pe37b3d07d2)" style="fill: none; stroke: #ff0000; stroke-linecap: square"/>
   </g>
   <g id="line2d_25">
    <path d="M 471.216276 363.495763 
L 471.221016 363.322779 
" clip-path="url(#pe37b3d07d2)" style="fill: none; stroke-dasharray: 1,1.65; stroke-dashoffset: 0; stroke: #ff0000"/>
   </g>
   <g id="line2d_26">
    <path d="M 475.414811 365.963956 
L 504.5544 382.911727 
" clip-path="url(#pe37b3d07d2)" style="fill: none; stroke: #ff0000; stroke-linecap: square"/>
   </g>
   <g id="line2d_27">
    <path d="M 320.091249 264.437643 
L 300.565643 272.473207 
" clip-path="url(#pe37b3d07d2)" style="fill: none; stroke-dasharray: 1,1.65; stroke-dashoffset: 0; stroke: #000000"/>
   </g>
   <g id="line2d_28">
    <path d="M 337.134593 274.386653 
L 317.563746 282.500656 
" clip-path="url(#pe37b3d07d2)" style="fill: none; stroke: #000000; stroke-linecap: square"/>
   </g>
   <g id="line2d_29">
    <path d="M 344.161015 250.042251 
L 344.161783 249.876034 
" clip-path="url(#pe37b3d07d2)" style="fill: none; stroke: #ff0000; stroke-linecap: square"/>
   </g>
   <g id="line2d_30">
    <path d="M 365.375505 268.212182 
L 374.291731 273.160924 
" clip-path="url(#pe37b3d07d2)" style="fill: none; stroke: #ff0000; stroke-linecap: square"/>
   </g>
   <g id="line2d_31">
    <path d="M 451.200783 372.475693 
L 451.204923 372.302191 
" clip-path="url(#pe37b3d07d2)" style="fill: none; stroke-dasharray: 1,1.65; stroke-dashoffset: 0; stroke: #ff0000"/>
   </g>
   <g id="line2d_32">
    <path d="M 455.393269 374.966669 
L 484.491515 392.07273 
" clip-path="url(#pe37b3d07d2)" style="fill: none; stroke: #ff0000; stroke-linecap: square"/>
   </g>
   <g id="line2d_33">
    <path d="M 300.565643 272.473207 
L 280.86972 280.578864 
" clip-path="url(#pe37b3d07d2)" style="fill: none; stroke-dasharray: 1,1.65; stroke-dashoffset: 0; stroke: #000000"/>
   </g>
   <g id="line2d_34">
    <path d="M 317.563746 282.500656 
L 297.850114 290.702839 
" clip-path="url(#pe37b3d07d2)" style="fill: none; stroke: #000000; stroke-linecap: square"/>
   </g>
   <g id="line2d_35">
    <path d="M 265.551548 282.314263 
L 265.550002 282.146079 
" clip-path="url(#pe37b3d07d2)" style="fill: none; stroke: #ff0000; stroke-linecap: square"/>
   </g>
   <g id="line2d_36">
    <path d="M 286.760889 300.961616 
L 295.541658 306.119341 
" clip-path="url(#pe37b3d07d2)" style="fill: none; stroke: #ff0000; stroke-linecap: square"/>
   </g>
   <g id="line2d_37">
    <path d="M 431.000046 381.538732 
L 431.003576 381.36471 
" clip-path="url(#pe37b3d07d2)" style="fill: none; stroke-dasharray: 1,1.65; stroke-dashoffset: 0; stroke: #ff0000"/>
   </g>
   <g id="line2d_38">
    <path d="M 435.186192 384.05281 
L 464.241063 401.319379 
" clip-path="url(#pe37b3d07d2)" style="fill: none; stroke: #ff0000; stroke-linecap: square"/>
   </g>
   <g id="line2d_39">
    <path d="M 280.86972 280.578864 
L 261.001243 288.755533 
" clip-path="url(#pe37b3d07d2)" style="fill: none; stroke-dasharray: 1,1.65; stroke-dashoffset: 0; stroke: #000000"/>
   </g>
   <g id="line2d_40">
    <path d="M 297.850114 290.702839 
L 277.996878 298.997954 
" clip-path="url(#pe37b3d07d2)" style="fill: none; stroke: #000000; stroke-linecap: square"/>
   </g>
   <g id="line2d_41">
    <path d="M 334.8194 244.672079 
L 334.819894 244.506192 
" clip-path="url(#pe37b3d07d2)" style="fill: none; stroke: #ff0000; stroke-linecap: square"/>
   </g>
   <g id="line2d_42">
    <path d="M 356.065326 250.915703 
L 364.886628 255.829299 
" clip-path="url(#pe37b3d07d2)" style="fill: none; stroke: #ff0000; stroke-linecap: square"/>
   </g>
   <g id="line2d_43">
    <path d="M 344.161015 250.042251 
L 344.161783 249.876034 
" clip-path="url(#pe37b3d07d2)" style="fill: none; stroke-dasharray: 1,1.65; stroke-dashoffset: 0; stroke: #ff0000"/>
   </g>
   <g id="line2d_44">
    <path d="M 365.375505 268.212182 
L 374.291731 273.160924 
" clip-path="url(#pe37b3d07d2)" style="fill: none; stroke: #ff0000; stroke-linecap: square"/>
   </g>
   <g id="line2d_45">
    <path d="M 261.001243 288.755533 
L 257.006641 290.399471 
" clip-path="url(#pe37b3d07d2)" style="fill: none; stroke-dasharray: 1,1.65; stroke-dashoffset: 0; stroke: #000000"/>
   </g>
   <g id="line2d_46">
    <path d="M 277.996878 298.997954 
L 274.006734 300.666739 
" clip-path="url(#pe37b3d07d2)" style="fill: none; stroke: #000000; stroke-linecap: square"/>
   </g>
   <g id="line2d_47">
    <path d="M 256.280174 276.753939 
L 256.278359 276.586092 
" clip-path="url(#pe37b3d07d2)" style="fill: none; stroke: #ff0000; stroke-linecap: square"/>
   </g>
   <g id="line2d_48">
    <path d="M 277.218006 283.387727 
L 286.038897 288.451036 
" clip-path="url(#pe37b3d07d2)" style="fill: none; stroke: #ff0000; stroke-linecap: square"/>
   </g>
   <g id="line2d_49">
    <path d="M 324.764343 258.005282 
L 324.764548 257.838576 
" clip-path="url(#pe37b3d07d2)" style="fill: none; stroke-dasharray: 1,1.65; stroke-dashoffset: 0; stroke: #ff0000"/>
   </g>
   <g id="line2d_50">
    <path d="M 345.935244 276.282208 
L 354.862532 281.292417 
" clip-path="url(#pe37b3d07d2)" style="fill: none; stroke: #ff0000; stroke-linecap: square"/>
   </g>
   <g id="line2d_51">
    <path d="M 184.866598 158.469391 
L 184.862925 158.308933 
" clip-path="url(#pe37b3d07d2)" style="fill: none; stroke: #ff0000; stroke-linecap: square"/>
   </g>
   <g id="line2d_52">
    <path d="M 188.301157 160.440028 
L 212.103465 173.943715 
" clip-path="url(#pe37b3d07d2)" style="fill: none; stroke: #ff0000; stroke-linecap: square"/>
   </g>
   <g id="line2d_53">
    <path d="M 305.198693 266.037684 
L 305.198324 265.870488 
" clip-path="url(#pe37b3d07d2)" style="fill: none; stroke-dasharray: 1,1.65; stroke-dashoffset: 0; stroke: #ff0000"/>
   </g>
   <g id="line2d_54">
    <path d="M 326.352656 284.414109 
L 335.262633 289.495351 
" clip-path="url(#pe37b3d07d2)" style="fill: none; stroke: #ff0000; stroke-linecap: square"/>
   </g>
   <g id="line2d_55">
    <path d="M 107.585241 187.577089 
L 107.579335 187.414772 
" clip-path="url(#pe37b3d07d2)" style="fill: none; stroke: #ff0000; stroke-linecap: square"/>
   </g>
   <g id="line2d_56">
    <path d="M 110.988222 189.614114 
L 134.571927 203.577863 
" clip-path="url(#pe37b3d07d2)" style="fill: none; stroke: #ff0000; stroke-linecap: square"/>
   </g>
   <g id="line2d_57">
    <path d="M 285.461847 274.140369 
L 285.460895 273.97268 
" clip-path="url(#pe37b3d07d2)" style="fill: none; stroke-dasharray: 1,1.65; stroke-dashoffset: 0; stroke: #ff0000"/>
   </g>
   <g id="line2d_58">
    <path d="M 306.636122 292.653311 
L 315.489775 297.770672 
" clip-path="url(#pe37b3d07d2)" style="fill: none; stroke: #ff0000; stroke-linecap: square"/>
   </g>
   <g id="line2d_59">
    <path d="M 265.551548 282.314263 
L 265.550002 282.146079 
" clip-path="url(#pe37b3d07d2)" style="fill: none; stroke-dasharray: 1,1.65; stroke-dashoffset: 0; stroke: #ff0000"/>
   </g>
   <g id="line2d_60">
    <path d="M 286.760889 300.961616 
L 295.541658 306.119341 
" clip-path="url(#pe37b3d07d2)" style="fill: none; stroke: #ff0000; stroke-linecap: square"/>
   </g>
   <g id="line2d_61">
    <path d="M 476.586801 359.810077 
L 439.858824 338.324986 
" clip-path="url(#pe37b3d07d2)" style="fill: none; stroke-dasharray: 1,1.65; stroke-dashoffset: 0; stroke: #000000"/>
   </g>
   <g id="line2d_62">
    <path d="M 509.989855 379.208985 
L 472.550737 358.916427 
" clip-path="url(#pe37b3d07d2)" style="fill: none; stroke: #000000; stroke-linecap: square"/>
   </g>
   <g id="line2d_63">
    <path d="M 334.8194 244.672079 
L 334.819894 244.506192 
" clip-path="url(#pe37b3d07d2)" style="fill: none; stroke-dasharray: 1,1.65; stroke-dashoffset: 0; stroke: #ff0000"/>
   </g>
   <g id="line2d_64">
    <path d="M 356.065326 250.915703 
L 364.886628 255.829299 
" clip-path="url(#pe37b3d07d2)" style="fill: none; stroke: #ff0000; stroke-linecap: square"/>
   </g>
   <g id="line2d_65">
    <path d="M 439.858824 338.324986 
L 403.933052 317.309168 
" clip-path="url(#pe37b3d07d2)" style="fill: none; stroke-dasharray: 1,1.65; stroke-dashoffset: 0; stroke: #000000"/>
   </g>
   <g id="line2d_66">
    <path d="M 472.550737 358.916427 
L 435.92683 339.467742 
" clip-path="url(#pe37b3d07d2)" style="fill: none; stroke: #000000; stroke-linecap: square"/>
   </g>
   <g id="line2d_67">
    <path d="M 315.43931 252.588497 
L 315.439242 252.422123 
" clip-path="url(#pe37b3d07d2)" style="fill: none; stroke-dasharray: 1,1.65; stroke-dashoffset: 0; stroke: #ff0000"/>
   </g>
   <g id="line2d_68">
    <path d="M 336.573764 258.890608 
L 345.433105 263.877821 
" clip-path="url(#pe37b3d07d2)" style="fill: none; stroke: #ff0000; stroke-linecap: square"/>
   </g>
   <g id="line2d_69">
    <path d="M 403.933052 317.309168 
L 368.783488 296.747416 
" clip-path="url(#pe37b3d07d2)" style="fill: none; stroke-dasharray: 1,1.65; stroke-dashoffset: 0; stroke: #000000"/>
   </g>
   <g id="line2d_70">
    <path d="M 435.92683 339.467742 
L 400.108412 320.195723 
" clip-path="url(#pe37b3d07d2)" style="fill: none; stroke: #000000; stroke-linecap: square"/>
   </g>
   <g id="line2d_71">
    <path d="M 295.890884 260.573677 
L 295.890243 260.406815 
" clip-path="url(#pe37b3d07d2)" style="fill: none; stroke-dasharray: 1,1.65; stroke-dashoffset: 0; stroke: #ff0000"/>
   </g>
   <g id="line2d_72">
    <path d="M 316.927674 266.969089 
L 325.808821 271.996992 
" clip-path="url(#pe37b3d07d2)" style="fill: none; stroke: #ff0000; stroke-linecap: square"/>
   </g>
   <g id="line2d_73">
    <path d="M 368.783488 296.747416 
L 334.385244 276.62517 
" clip-path="url(#pe37b3d07d2)" style="fill: none; stroke-dasharray: 1,1.65; stroke-dashoffset: 0; stroke: #000000"/>
   </g>
   <g id="line2d_74">
    <path d="M 400.108412 320.195723 
L 365.068816 300.600649 
" clip-path="url(#pe37b3d07d2)" style="fill: none; stroke: #000000; stroke-linecap: square"/>
   </g>
   <g id="line2d_75">
    <path d="M 276.171919 268.628519 
L 276.170696 268.461166 
" clip-path="url(#pe37b3d07d2)" style="fill: none; stroke-dasharray: 1,1.65; stroke-dashoffset: 0; stroke: #ff0000"/>
   </g>
   <g id="line2d_76">
    <path d="M 297.146758 275.127554 
L 306.011518 280.187747 
" clip-path="url(#pe37b3d07d2)" style="fill: none; stroke: #ff0000; stroke-linecap: square"/>
   </g>
   <g id="line2d_77">
    <path d="M 334.385244 276.62517 
L 300.714485 256.928488 
" clip-path="url(#pe37b3d07d2)" style="fill: none; stroke-dasharray: 1,1.65; stroke-dashoffset: 0; stroke: #000000"/>
   </g>
   <g id="line2d_78">
    <path d="M 365.068816 300.600649 
L 330.770475 280.414447 
" clip-path="url(#pe37b3d07d2)" style="fill: none; stroke: #000000; stroke-linecap: square"/>
   </g>
   <g id="line2d_79">
    <path d="M 256.280174 276.753939 
L 256.278359 276.586092 
" clip-path="url(#pe37b3d07d2)" style="fill: none; stroke-dasharray: 1,1.65; stroke-dashoffset: 0; stroke: #ff0000"/>
   </g>
   <g id="line2d_80">
    <path d="M 277.218006 283.387727 
L 286.038897 288.451036 
" clip-path="url(#pe37b3d07d2)" style="fill: none; stroke: #ff0000; stroke-linecap: square"/>
   </g>
   <g id="line2d_81">
    <path d="M 184.866598 158.469391 
L 184.862925 158.308933 
" clip-path="url(#pe37b3d07d2)" style="fill: none; stroke-dasharray: 1,1.65; stroke-dashoffset: 0; stroke: #ff0000"/>
   </g>
   <g id="line2d_82">
    <path d="M 188.301157 160.440028 
L 212.103465 173.943715 
" clip-path="url(#pe37b3d07d2)" style="fill: none; stroke: #ff0000; stroke-linecap: square"/>
   </g>
   <g id="line2d_83">
    <path d="M 165.785045 165.656378 
L 165.780827 165.495458 
" clip-path="url(#pe37b3d07d2)" style="fill: none; stroke-dasharray: 1,1.65; stroke-dashoffset: 0; stroke: #ff0000"/>
   </g>
   <g id="line2d_84">
    <path d="M 169.212078 167.643304 
L 192.962302 181.259861 
" clip-path="url(#pe37b3d07d2)" style="fill: none; stroke: #ff0000; stroke-linecap: square"/>
   </g>
   <g id="line2d_85">
    <path d="M 146.545618 172.902827 
L 146.540847 172.741443 
" clip-path="url(#pe37b3d07d2)" style="fill: none; stroke-dasharray: 1,1.65; stroke-dashoffset: 0; stroke: #ff0000"/>
   </g>
   <g id="line2d_86">
    <path d="M 149.964884 174.906245 
L 173.661336 188.637087 
" clip-path="url(#pe37b3d07d2)" style="fill: none; stroke: #ff0000; stroke-linecap: square"/>
   </g>
   <g id="line2d_87">
    <path d="M 127.14635 180.20948 
L 127.141016 180.04763 
" clip-path="url(#pe37b3d07d2)" style="fill: none; stroke-dasharray: 1,1.65; stroke-dashoffset: 0; stroke: #ff0000"/>
   </g>
   <g id="line2d_88">
    <path d="M 130.5576 182.229597 
L 154.198559 196.07616 
" clip-path="url(#pe37b3d07d2)" style="fill: none; stroke: #ff0000; stroke-linecap: square"/>
   </g>
   <g id="line2d_89">
    <path d="M 107.585241 187.577089 
L 107.579335 187.414772 
" clip-path="url(#pe37b3d07d2)" style="fill: none; stroke-dasharray: 1,1.65; stroke-dashoffset: 0; stroke: #ff0000"/>
   </g>
   <g id="line2d_90">
    <path d="M 110.988222 189.614114 
L 134.571927 203.577863 
" clip-path="url(#pe37b3d07d2)" style="fill: none; stroke: #ff0000; stroke-linecap: square"/>
   </g>
   <g id="line2d_91">
    <path d="M 300.322135 256.698971 
L 267.364193 237.419271 
" clip-path="url(#pe37b3d07d2)" style="fill: none; stroke-dasharray: 1,1.65; stroke-dashoffset: 0; stroke: #000000"/>
   </g>
   <g id="line2d_92">
    <path d="M 330.402575 268.38117 
L 296.796951 248.725839 
" clip-path="url(#pe37b3d07d2)" style="fill: none; stroke: #000000; stroke-linecap: square"/>
   </g>
   <g id="line2d_93">
    <path d="M 267.364193 237.419271 
L 235.088756 218.538823 
" clip-path="url(#pe37b3d07d2)" style="fill: none; stroke-dasharray: 1,1.65; stroke-dashoffset: 0; stroke: #000000"/>
   </g>
   <g id="line2d_94">
    <path d="M 296.796951 248.725839 
L 263.88381 230.464174 
" clip-path="url(#pe37b3d07d2)" style="fill: none; stroke: #000000; stroke-linecap: square"/>
   </g>
   <g id="line2d_95">
    <path d="M 235.088756 218.538823 
L 203.474842 200.045351 
" clip-path="url(#pe37b3d07d2)" style="fill: none; stroke-dasharray: 1,1.65; stroke-dashoffset: 0; stroke: #000000"/>
   </g>
   <g id="line2d_96">
    <path d="M 263.88381 230.464174 
L 231.654857 213.29536 
" clip-path="url(#pe37b3d07d2)" style="fill: none; stroke: #000000; stroke-linecap: square"/>
   </g>
   <g id="line2d_97">
    <path d="M 203.474842 200.045351 
L 172.50232 181.92708 
" clip-path="url(#pe37b3d07d2)" style="fill: none; stroke-dasharray: 1,1.65; stroke-dashoffset: 0; stroke: #000000"/>
   </g>
   <g id="line2d_98">
    <path d="M 231.654857 213.29536 
L 200.09131 196.715844 
" clip-path="url(#pe37b3d07d2)" style="fill: none; stroke: #000000; stroke-linecap: square"/>
   </g>
   <g id="line2d_99">
    <path d="M 172.50232 181.92708 
L 142.151864 164.172705 
" clip-path="url(#pe37b3d07d2)" style="fill: none; stroke-dasharray: 1,1.65; stroke-dashoffset: 0; stroke: #000000"/>
   </g>
   <g id="line2d_100">
    <path d="M 200.09131 196.715844 
L 169.160997 180.096248 
" clip-path="url(#pe37b3d07d2)" style="fill: none; stroke: #000000; stroke-linecap: square"/>
   </g>
   <g id="line2d_101">
    <path d="M 300.714485 256.928488 
L 349.347358 237.080871 
" clip-path="url(#pe37b3d07d2)" style="fill: none; stroke-dasharray: 1,1.65; stroke-dashoffset: 0; stroke: #808080"/>
   </g>
   <g id="line2d_102">
    <path d="M 330.770475 280.414447 
L 379.485939 260.145124 
" clip-path="url(#pe37b3d07d2)" style="fill: none; stroke: #808080; stroke-linecap: square"/>
   </g>
   <g id="line2d_103">
    <path d="M 300.714485 256.928488 
L 251.011063 277.213007 
" clip-path="url(#pe37b3d07d2)" style="fill: none; stroke-dasharray: 1,1.65; stroke-dashoffset: 0; stroke: #808080"/>
   </g>
   <g id="line2d_104">
    <path d="M 330.770475 280.414447 
L 280.973439 301.133785 
" clip-path="url(#pe37b3d07d2)" style="fill: none; stroke: #808080; stroke-linecap: square"/>
   </g>
   <g id="line2d_105">
    <path d="M 300.322135 256.698971 
L 348.953241 236.856271 
" clip-path="url(#pe37b3d07d2)" style="fill: none; stroke-dasharray: 1,1.65; stroke-dashoffset: 0; stroke: #808080"/>
   </g>
   <g id="line2d_106">
    <path d="M 330.402575 268.38117 
L 379.216781 248.203891 
" clip-path="url(#pe37b3d07d2)" style="fill: none; stroke: #808080; stroke-linecap: square"/>
   </g>
   <g id="line2d_107">
    <path d="M 300.322135 256.698971 
L 250.620653 276.978411 
" clip-path="url(#pe37b3d07d2)" style="fill: none; stroke-dasharray: 1,1.65; stroke-dashoffset: 0; stroke: #808080"/>
   </g>
   <g id="line2d_108">
    <path d="M 330.402575 268.38117 
L 280.502476 289.0073 
" clip-path="url(#pe37b3d07d2)" style="fill: none; stroke: #808080; stroke-linecap: square"/>
   </g>
   <g id="line2d_109">
    <path d="M 476.586801 359.810077 
L 510.707537 345.608746 
" clip-path="url(#pe37b3d07d2)" style="fill: none; stroke-dasharray: 1,1.65; stroke-dashoffset: 0; stroke: #808080"/>
   </g>
   <g id="line2d_110">
    <path d="M 509.989855 379.208985 
L 544.127798 364.841942 
" clip-path="url(#pe37b3d07d2)" style="fill: none; stroke: #808080; stroke-linecap: square"/>
   </g>
   <g id="line2d_111">
    <path d="M 476.586801 359.810077 
L 491.05439 354.425337 
" clip-path="url(#pe37b3d07d2)" style="fill: none; stroke-dasharray: 1,1.65; stroke-dashoffset: 0; stroke: #808080"/>
   </g>
   <g id="line2d_112">
    <path d="M 509.989855 379.208985 
L 524.432312 373.835185 
" clip-path="url(#pe37b3d07d2)" style="fill: none; stroke: #808080; stroke-linecap: square"/>
   </g>
   <g id="line2d_113">
    <path d="M 476.586801 359.810077 
L 471.221016 363.322779 
" clip-path="url(#pe37b3d07d2)" style="fill: none; stroke-dasharray: 1,1.65; stroke-dashoffset: 0; stroke: #808080"/>
   </g>
   <g id="line2d_114">
    <path d="M 509.989855 379.208985 
L 504.5544 382.911727 
" clip-path="url(#pe37b3d07d2)" style="fill: none; stroke: #808080; stroke-linecap: square"/>
   </g>
   <g id="line2d_115">
    <path d="M 476.586801 359.810077 
L 451.204923 372.302191 
" clip-path="url(#pe37b3d07d2)" style="fill: none; stroke-dasharray: 1,1.65; stroke-dashoffset: 0; stroke: #808080"/>
   </g>
   <g id="line2d_116">
    <path d="M 509.989855 379.208985 
L 484.491515 392.07273 
" clip-path="url(#pe37b3d07d2)" style="fill: none; stroke: #808080; stroke-linecap: square"/>
   </g>
   <g id="line2d_117">
    <path d="M 476.586801 359.810077 
L 431.003576 381.36471 
" clip-path="url(#pe37b3d07d2)" style="fill: none; stroke-dasharray: 1,1.65; stroke-dashoffset: 0; stroke: #808080"/>
   </g>
   <g id="line2d_118">
    <path d="M 509.989855 379.208985 
L 464.241063 401.319379 
" clip-path="url(#pe37b3d07d2)" style="fill: none; stroke: #808080; stroke-linecap: square"/>
   </g>
   <g id="line2d_119">
    <path d="M 300.714485 256.928488 
L 344.161783 249.876034 
" clip-path="url(#pe37b3d07d2)" style="fill: none; stroke-dasharray: 1,1.65; stroke-dashoffset: 0; stroke: #808080"/>
   </g>
   <g id="line2d_120">
    <path d="M 330.770475 280.414447 
L 374.291731 273.160924 
" clip-path="url(#pe37b3d07d2)" style="fill: none; stroke: #808080; stroke-linecap: square"/>
   </g>
   <g id="line2d_121">
    <path d="M 300.714485 256.928488 
L 324.764548 257.838576 
" clip-path="url(#pe37b3d07d2)" style="fill: none; stroke-dasharray: 1,1.65; stroke-dashoffset: 0; stroke: #808080"/>
   </g>
   <g id="line2d_122">
    <path d="M 330.770475 280.414447 
L 354.862532 281.292417 
" clip-path="url(#pe37b3d07d2)" style="fill: none; stroke: #808080; stroke-linecap: square"/>
   </g>
   <g id="line2d_123">
    <path d="M 300.714485 256.928488 
L 305.198324 265.870488 
" clip-path="url(#pe37b3d07d2)" style="fill: none; stroke-dasharray: 1,1.65; stroke-dashoffset: 0; stroke: #808080"/>
   </g>
   <g id="line2d_124">
    <path d="M 330.770475 280.414447 
L 335.262633 289.495351 
" clip-path="url(#pe37b3d07d2)" style="fill: none; stroke: #808080; stroke-linecap: square"/>
   </g>
   <g id="line2d_125">
    <path d="M 300.714485 256.928488 
L 285.460895 273.97268 
" clip-path="url(#pe37b3d07d2)" style="fill: none; stroke-dasharray: 1,1.65; stroke-dashoffset: 0; stroke: #808080"/>
   </g>
   <g id="line2d_126">
    <path d="M 330.770475 280.414447 
L 315.489775 297.770672 
" clip-path="url(#pe37b3d07d2)" style="fill: none; stroke: #808080; stroke-linecap: square"/>
   </g>
   <g id="line2d_127">
    <path d="M 300.714485 256.928488 
L 265.550002 282.146079 
" clip-path="url(#pe37b3d07d2)" style="fill: none; stroke-dasharray: 1,1.65; stroke-dashoffset: 0; stroke: #808080"/>
   </g>
   <g id="line2d_128">
    <path d="M 330.770475 280.414447 
L 295.541658 306.119341 
" clip-path="url(#pe37b3d07d2)" style="fill: none; stroke: #808080; stroke-linecap: square"/>
   </g>
   <g id="line2d_129">
    <path d="M 300.322135 256.698971 
L 334.819894 244.506192 
" clip-path="url(#pe37b3d07d2)" style="fill: none; stroke-dasharray: 1,1.65; stroke-dashoffset: 0; stroke: #808080"/>
   </g>
   <g id="line2d_130">
    <path d="M 330.402575 268.38117 
L 364.886628 255.829299 
" clip-path="url(#pe37b3d07d2)" style="fill: none; stroke: #808080; stroke-linecap: square"/>
   </g>
   <g id="line2d_131">
    <path d="M 300.322135 256.698971 
L 315.439242 252.422123 
" clip-path="url(#pe37b3d07d2)" style="fill: none; stroke-dasharray: 1,1.65; stroke-dashoffset: 0; stroke: #808080"/>
   </g>
   <g id="line2d_132">
    <path d="M 330.402575 268.38117 
L 345.433105 263.877821 
" clip-path="url(#pe37b3d07d2)" style="fill: none; stroke: #808080; stroke-linecap: square"/>
   </g>
   <g id="line2d_133">
    <path d="M 300.322135 256.698971 
L 295.890243 260.406815 
" clip-path="url(#pe37b3d07d2)" style="fill: none; stroke-dasharray: 1,1.65; stroke-dashoffset: 0; stroke: #808080"/>
   </g>
   <g id="line2d_134">
    <path d="M 330.402575 268.38117 
L 325.808821 271.996992 
" clip-path="url(#pe37b3d07d2)" style="fill: none; stroke: #808080; stroke-linecap: square"/>
   </g>
   <g id="line2d_135">
    <path d="M 300.322135 256.698971 
L 276.170696 268.461166 
" clip-path="url(#pe37b3d07d2)" style="fill: none; stroke-dasharray: 1,1.65; stroke-dashoffset: 0; stroke: #808080"/>
   </g>
   <g id="line2d_136">
    <path d="M 330.402575 268.38117 
L 306.011518 280.187747 
" clip-path="url(#pe37b3d07d2)" style="fill: none; stroke: #808080; stroke-linecap: square"/>
   </g>
   <g id="line2d_137">
    <path d="M 300.322135 256.698971 
L 256.278359 276.586092 
" clip-path="url(#pe37b3d07d2)" style="fill: none; stroke-dasharray: 1,1.65; stroke-dashoffset: 0; stroke: #808080"/>
   </g>
   <g id="line2d_138">
    <path d="M 330.402575 268.38117 
L 286.038897 288.451036 
" clip-path="url(#pe37b3d07d2)" style="fill: none; stroke: #808080; stroke-linecap: square"/>
   </g>
   <g id="line2d_139">
    <path d="M 142.151864 164.172705 
L 184.862925 158.308933 
" clip-path="url(#pe37b3d07d2)" style="fill: none; stroke-dasharray: 1,1.65; stroke-dashoffset: 0; stroke: #808080"/>
   </g>
   <g id="line2d_140">
    <path d="M 169.160997 180.096248 
L 212.103465 173.943715 
" clip-path="url(#pe37b3d07d2)" style="fill: none; stroke: #808080; stroke-linecap: square"/>
   </g>
   <g id="line2d_141">
    <path d="M 142.151864 164.172705 
L 165.780827 165.495458 
" clip-path="url(#pe37b3d07d2)" style="fill: none; stroke-dasharray: 1,1.65; stroke-dashoffset: 0; stroke: #808080"/>
   </g>
   <g id="line2d_142">
    <path d="M 169.160997 180.096248 
L 192.962302 181.259861 
" clip-path="url(#pe37b3d07d2)" style="fill: none; stroke: #808080; stroke-linecap: square"/>
   </g>
   <g id="line2d_143">
    <path d="M 142.151864 164.172705 
L 146.540847 172.741443 
" clip-path="url(#pe37b3d07d2)" style="fill: none; stroke-dasharray: 1,1.65; stroke-dashoffset: 0; stroke: #808080"/>
   </g>
   <g id="line2d_144">
    <path d="M 169.160997 180.096248 
L 173.661336 188.637087 
" clip-path="url(#pe37b3d07d2)" style="fill: none; stroke: #808080; stroke-linecap: square"/>
   </g>
   <g id="line2d_145">
    <path d="M 142.151864 164.172705 
L 127.141016 180.04763 
" clip-path="url(#pe37b3d07d2)" style="fill: none; stroke-dasharray: 1,1.65; stroke-dashoffset: 0; stroke: #808080"/>
   </g>
   <g id="line2d_146">
    <path d="M 169.160997 180.096248 
L 154.198559 196.07616 
" clip-path="url(#pe37b3d07d2)" style="fill: none; stroke: #808080; stroke-linecap: square"/>
   </g>
   <g id="line2d_147">
    <path d="M 142.151864 164.172705 
L 107.579335 187.414772 
" clip-path="url(#pe37b3d07d2)" style="fill: none; stroke-dasharray: 1,1.65; stroke-dashoffset: 0; stroke: #808080"/>
   </g>
   <g id="line2d_148">
    <path d="M 169.160997 180.096248 
L 134.571927 203.577863 
" clip-path="url(#pe37b3d07d2)" style="fill: none; stroke: #808080; stroke-linecap: square"/>
   </g>
   <g id="line2d_149">
    <path d="M 339.448738 256.471266 
L 344.161015 250.042251 
" clip-path="url(#pe37b3d07d2)" style="fill: none; stroke-dasharray: 1,1.65; stroke-dashoffset: 0; stroke: #808080"/>
   </g>
   <g id="line2d_150">
    <path d="M 356.57069 266.362754 
L 365.375505 268.212182 
" clip-path="url(#pe37b3d07d2)" style="fill: none; stroke: #808080; stroke-linecap: square"/>
   </g>
   <g id="line2d_151">
    <path d="M 339.448738 256.471266 
L 334.8194 244.672079 
" clip-path="url(#pe37b3d07d2)" style="fill: none; stroke-dasharray: 1,1.65; stroke-dashoffset: 0; stroke: #808080"/>
   </g>
   <g id="line2d_152">
    <path d="M 356.57069 266.362754 
L 356.065326 250.915703 
" clip-path="url(#pe37b3d07d2)" style="fill: none; stroke: #808080; stroke-linecap: square"/>
   </g>
   <g id="line2d_153">
    <path d="M 320.091249 264.437643 
L 324.764343 258.005282 
" clip-path="url(#pe37b3d07d2)" style="fill: none; stroke-dasharray: 1,1.65; stroke-dashoffset: 0; stroke: #808080"/>
   </g>
   <g id="line2d_154">
    <path d="M 337.134593 274.386653 
L 345.935244 276.282208 
" clip-path="url(#pe37b3d07d2)" style="fill: none; stroke: #808080; stroke-linecap: square"/>
   </g>
   <g id="line2d_155">
    <path d="M 320.091249 264.437643 
L 315.43931 252.588497 
" clip-path="url(#pe37b3d07d2)" style="fill: none; stroke-dasharray: 1,1.65; stroke-dashoffset: 0; stroke: #808080"/>
   </g>
   <g id="line2d_156">
    <path d="M 337.134593 274.386653 
L 336.573764 258.890608 
" clip-path="url(#pe37b3d07d2)" style="fill: none; stroke: #808080; stroke-linecap: square"/>
   </g>
   <g id="line2d_157">
    <path d="M 300.565643 272.473207 
L 305.198693 266.037684 
" clip-path="url(#pe37b3d07d2)" style="fill: none; stroke-dasharray: 1,1.65; stroke-dashoffset: 0; stroke: #808080"/>
   </g>
   <g id="line2d_158">
    <path d="M 317.563746 282.500656 
L 326.352656 284.414109 
" clip-path="url(#pe37b3d07d2)" style="fill: none; stroke: #808080; stroke-linecap: square"/>
   </g>
   <g id="line2d_159">
    <path d="M 300.565643 272.473207 
L 295.890884 260.573677 
" clip-path="url(#pe37b3d07d2)" style="fill: none; stroke-dasharray: 1,1.65; stroke-dashoffset: 0; stroke: #808080"/>
   </g>
   <g id="line2d_160">
    <path d="M 317.563746 282.500656 
L 316.927674 266.969089 
" clip-path="url(#pe37b3d07d2)" style="fill: none; stroke: #808080; stroke-linecap: square"/>
   </g>
   <g id="line2d_161">
    <path d="M 280.86972 280.578864 
L 285.461847 274.140369 
" clip-path="url(#pe37b3d07d2)" style="fill: none; stroke-dasharray: 1,1.65; stroke-dashoffset: 0; stroke: #808080"/>
   </g>
   <g id="line2d_162">
    <path d="M 297.850114 290.702839 
L 306.636122 292.653311 
" clip-path="url(#pe37b3d07d2)" style="fill: none; stroke: #808080; stroke-linecap: square"/>
   </g>
   <g id="line2d_163">
    <path d="M 280.86972 280.578864 
L 276.171919 268.628519 
" clip-path="url(#pe37b3d07d2)" style="fill: none; stroke-dasharray: 1,1.65; stroke-dashoffset: 0; stroke: #808080"/>
   </g>
   <g id="line2d_164">
    <path d="M 297.850114 290.702839 
L 297.146758 275.127554 
" clip-path="url(#pe37b3d07d2)" style="fill: none; stroke: #808080; stroke-linecap: square"/>
   </g>
   <g id="line2d_165">
    <path d="M 261.001243 288.755533 
L 265.551548 282.314263 
" clip-path="url(#pe37b3d07d2)" style="fill: none; stroke-dasharray: 1,1.65; stroke-dashoffset: 0; stroke: #808080"/>
   </g>
   <g id="line2d_166">
    <path d="M 277.996878 298.997954 
L 286.760889 300.961616 
" clip-path="url(#pe37b3d07d2)" style="fill: none; stroke: #808080; stroke-linecap: square"/>
   </g>
   <g id="line2d_167">
    <path d="M 261.001243 288.755533 
L 256.280174 276.753939 
" clip-path="url(#pe37b3d07d2)" style="fill: none; stroke-dasharray: 1,1.65; stroke-dashoffset: 0; stroke: #808080"/>
   </g>
   <g id="line2d_168">
    <path d="M 277.996878 298.997954 
L 277.218006 283.387727 
" clip-path="url(#pe37b3d07d2)" style="fill: none; stroke: #808080; stroke-linecap: square"/>
   </g>
   <g id="line2d_169">
    <path d="M 320.091249 264.437643 
L 320.087541 273.553129 
" clip-path="url(#pe37b3d07d2)" style="fill: none; stroke-dasharray: 1,1.65; stroke-dashoffset: 0; stroke: #808080"/>
   </g>
   <g id="line2d_170">
    <path d="M 337.134593 274.386653 
L 333.040474 281.151538 
" clip-path="url(#pe37b3d07d2)" style="fill: none; stroke: #808080; stroke-linecap: square"/>
   </g>
   <g id="line2d_171">
    <path d="M 280.86972 280.578864 
L 280.929256 289.747692 
" clip-path="url(#pe37b3d07d2)" style="fill: none; stroke-dasharray: 1,1.65; stroke-dashoffset: 0; stroke: #808080"/>
   </g>
   <g id="line2d_172">
    <path d="M 297.850114 290.702839 
L 293.834337 297.479457 
" clip-path="url(#pe37b3d07d2)" style="fill: none; stroke: #808080; stroke-linecap: square"/>
   </g>
   <g id="line2d_173">
    <path d="M 471.216276 363.495763 
L 510.701632 345.780701 
" clip-path="url(#pe37b3d07d2)" style="fill: none; stroke-dasharray: 1,1.65; stroke-dashoffset: 0; stroke: #808080"/>
   </g>
   <g id="line2d_174">
    <path d="M 475.414811 365.963956 
L 514.911415 348.204253 
" clip-path="url(#pe37b3d07d2)" style="fill: none; stroke: #808080; stroke-linecap: square"/>
   </g>
   <g id="line2d_175">
    <path d="M 471.216276 363.495763 
L 491.049062 354.597805 
" clip-path="url(#pe37b3d07d2)" style="fill: none; stroke-dasharray: 1,1.65; stroke-dashoffset: 0; stroke: #808080"/>
   </g>
   <g id="line2d_176">
    <path d="M 475.414811 365.963956 
L 495.25336 357.043524 
" clip-path="url(#pe37b3d07d2)" style="fill: none; stroke: #808080; stroke-linecap: square"/>
   </g>
   <g id="line2d_177">
    <path d="M 471.216276 363.495763 
L 471.216276 363.495763 
" clip-path="url(#pe37b3d07d2)" style="fill: none; stroke-dasharray: 1,1.65; stroke-dashoffset: 0; stroke: #808080"/>
   </g>
   <g id="line2d_178">
    <path d="M 475.414811 365.963956 
L 475.414811 365.963956 
" clip-path="url(#pe37b3d07d2)" style="fill: none; stroke: #808080; stroke-linecap: square"/>
   </g>
   <g id="line2d_179">
    <path d="M 471.216276 363.495763 
L 451.200783 372.475693 
" clip-path="url(#pe37b3d07d2)" style="fill: none; stroke-dasharray: 1,1.65; stroke-dashoffset: 0; stroke: #808080"/>
   </g>
   <g id="line2d_180">
    <path d="M 475.414811 365.963956 
L 455.393269 374.966669 
" clip-path="url(#pe37b3d07d2)" style="fill: none; stroke: #808080; stroke-linecap: square"/>
   </g>
   <g id="line2d_181">
    <path d="M 471.216276 363.495763 
L 431.000046 381.538732 
" clip-path="url(#pe37b3d07d2)" style="fill: none; stroke-dasharray: 1,1.65; stroke-dashoffset: 0; stroke: #808080"/>
   </g>
   <g id="line2d_182">
    <path d="M 475.414811 365.963956 
L 435.186192 384.05281 
" clip-path="url(#pe37b3d07d2)" style="fill: none; stroke: #808080; stroke-linecap: square"/>
   </g>
   <g id="line2d_183">
    <path d="M 146.545618 172.902827 
L 184.866598 158.469391 
" clip-path="url(#pe37b3d07d2)" style="fill: none; stroke-dasharray: 1,1.65; stroke-dashoffset: 0; stroke: #808080"/>
   </g>
   <g id="line2d_184">
    <path d="M 149.964884 174.906245 
L 188.301157 160.440028 
" clip-path="url(#pe37b3d07d2)" style="fill: none; stroke: #808080; stroke-linecap: square"/>
   </g>
   <g id="line2d_185">
    <path d="M 146.545618 172.902827 
L 165.785045 165.656378 
" clip-path="url(#pe37b3d07d2)" style="fill: none; stroke-dasharray: 1,1.65; stroke-dashoffset: 0; stroke: #808080"/>
   </g>
   <g id="line2d_186">
    <path d="M 149.964884 174.906245 
L 169.212078 167.643304 
" clip-path="url(#pe37b3d07d2)" style="fill: none; stroke: #808080; stroke-linecap: square"/>
   </g>
   <g id="line2d_187">
    <path d="M 146.545618 172.902827 
L 146.545618 172.902827 
" clip-path="url(#pe37b3d07d2)" style="fill: none; stroke-dasharray: 1,1.65; stroke-dashoffset: 0; stroke: #808080"/>
   </g>
   <g id="line2d_188">
    <path d="M 149.964884 174.906245 
L 149.964884 174.906245 
" clip-path="url(#pe37b3d07d2)" style="fill: none; stroke: #808080; stroke-linecap: square"/>
   </g>
   <g id="line2d_189">
    <path d="M 146.545618 172.902827 
L 127.14635 180.20948 
" clip-path="url(#pe37b3d07d2)" style="fill: none; stroke-dasharray: 1,1.65; stroke-dashoffset: 0; stroke: #808080"/>
   </g>
   <g id="line2d_190">
    <path d="M 149.964884 174.906245 
L 130.5576 182.229597 
" clip-path="url(#pe37b3d07d2)" style="fill: none; stroke: #808080; stroke-linecap: square"/>
   </g>
   <g id="line2d_191">
    <path d="M 146.545618 172.902827 
L 107.585241 187.577089 
" clip-path="url(#pe37b3d07d2)" style="fill: none; stroke-dasharray: 1,1.65; stroke-dashoffset: 0; stroke: #808080"/>
   </g>
   <g id="line2d_192">
    <path d="M 149.964884 174.906245 
L 110.988222 189.614114 
" clip-path="url(#pe37b3d07d2)" style="fill: none; stroke: #808080; stroke-linecap: square"/>
   </g>
   <g id="text_1">
    <!-- Mode 1 -->
    <g transform="translate(67.68 37.44) scale(0.2 -0.2)">
     <defs>
      <path id="TimesNewRomanPS-BoldMT-4d" d="M 3050 1444 
L 4200 4238 
L 5925 4238 
L 5925 4122 
L 5788 4122 
Q 5600 4122 5488 4056 
Q 5409 4013 5363 3909 
Q 5328 3834 5328 3519 
L 5328 725 
Q 5328 400 5362 319 
Q 5397 238 5503 177 
Q 5609 116 5788 116 
L 5925 116 
L 5925 0 
L 3713 0 
L 3713 116 
L 3850 116 
Q 4038 116 4150 181 
Q 4228 225 4275 331 
Q 4309 406 4309 725 
L 4309 3866 
L 2684 0 
L 2609 0 
L 959 3838 
L 959 853 
Q 959 541 975 469 
Q 1016 313 1152 214 
Q 1288 116 1578 116 
L 1578 0 
L 128 0 
L 128 116 
L 172 116 
Q 313 113 434 161 
Q 556 209 618 290 
Q 681 372 716 519 
Q 722 553 722 838 
L 722 3519 
Q 722 3841 687 3920 
Q 653 4000 547 4061 
Q 441 4122 263 4122 
L 128 4122 
L 128 4238 
L 1859 4238 
L 3050 1444 
z
" transform="scale(0.015625)"/>
      <path id="TimesNewRomanPS-BoldMT-6f" d="M 1594 3009 
Q 1975 3009 2303 2812 
Q 2631 2616 2801 2253 
Q 2972 1891 2972 1459 
Q 2972 838 2656 419 
Q 2275 -88 1603 -88 
Q 944 -88 587 375 
Q 231 838 231 1447 
Q 231 2075 595 2542 
Q 959 3009 1594 3009 
z
M 1606 2788 
Q 1447 2788 1333 2667 
Q 1219 2547 1183 2192 
Q 1147 1838 1147 1206 
Q 1147 872 1191 581 
Q 1225 359 1337 243 
Q 1450 128 1594 128 
Q 1734 128 1828 206 
Q 1950 313 1991 503 
Q 2053 800 2053 1703 
Q 2053 2234 1993 2432 
Q 1934 2631 1819 2722 
Q 1738 2788 1606 2788 
z
" transform="scale(0.015625)"/>
      <path id="TimesNewRomanPS-BoldMT-64" d="M 3056 4238 
L 3056 875 
Q 3056 534 3075 472 
Q 3100 369 3170 319 
Q 3241 269 3416 256 
L 3416 153 
L 2181 -88 
L 2181 375 
Q 1959 106 1786 9 
Q 1613 -88 1394 -88 
Q 834 -88 509 413 
Q 247 819 247 1409 
Q 247 1881 409 2254 
Q 572 2628 855 2818 
Q 1138 3009 1463 3009 
Q 1672 3009 1834 2928 
Q 1997 2847 2181 2644 
L 2181 3525 
Q 2181 3859 2153 3928 
Q 2116 4019 2041 4062 
Q 1966 4106 1759 4106 
L 1759 4238 
L 3056 4238 
z
M 2181 2256 
Q 1950 2700 1616 2700 
Q 1500 2700 1425 2638 
Q 1309 2541 1236 2297 
Q 1163 2053 1163 1550 
Q 1163 997 1244 731 
Q 1325 466 1466 347 
Q 1538 288 1663 288 
Q 1938 288 2181 719 
L 2181 2256 
z
" transform="scale(0.015625)"/>
      <path id="TimesNewRomanPS-BoldMT-65" d="M 2691 1566 
L 1088 1566 
Q 1116 984 1397 647 
Q 1613 388 1916 388 
Q 2103 388 2256 492 
Q 2409 597 2584 869 
L 2691 800 
Q 2453 316 2165 114 
Q 1878 -88 1500 -88 
Q 850 -88 516 413 
Q 247 816 247 1413 
Q 247 2144 642 2576 
Q 1038 3009 1569 3009 
Q 2013 3009 2339 2645 
Q 2666 2281 2691 1566 
z
M 1922 1775 
Q 1922 2278 1867 2465 
Q 1813 2653 1697 2750 
Q 1631 2806 1522 2806 
Q 1359 2806 1256 2647 
Q 1072 2369 1072 1884 
L 1072 1775 
L 1922 1775 
z
" transform="scale(0.015625)"/>
      <path id="TimesNewRomanPS-BoldMT-20" transform="scale(0.015625)"/>
      <path id="TimesNewRomanPS-BoldMT-31" d="M 2084 4325 
L 2084 859 
Q 2084 469 2118 361 
Q 2153 253 2262 184 
Q 2372 116 2613 116 
L 2709 116 
L 2709 0 
L 478 0 
L 478 116 
L 591 116 
Q 863 116 978 178 
Q 1094 241 1134 350 
Q 1175 459 1175 859 
L 1175 3056 
Q 1175 3350 1147 3423 
Q 1119 3497 1042 3548 
Q 966 3600 866 3600 
Q 706 3600 478 3500 
L 422 3613 
L 1981 4325 
L 2084 4325 
z
" transform="scale(0.015625)"/>
     </defs>
     <use xlink:href="#TimesNewRomanPS-BoldMT-4d"/>
     <use xlink:href="#TimesNewRomanPS-BoldMT-6f" x="94.384766"/>
     <use xlink:href="#TimesNewRomanPS-BoldMT-64" x="144.384766"/>
     <use xlink:href="#TimesNewRomanPS-BoldMT-65" x="200"/>
     <use xlink:href="#TimesNewRomanPS-BoldMT-20" x="244.384766"/>
     <use xlink:href="#TimesNewRomanPS-BoldMT-31" x="269.384766"/>
    </g>
   </g>
   <g id="text_2">
    <!-- T = 0.444 s -->
    <g transform="translate(67.68 67.68) scale(0.2 -0.2)">
     <defs>
      <path id="TimesNewRomanPS-BoldMT-54" d="M 4038 4238 
L 4038 3091 
L 3925 3091 
Q 3825 3488 3703 3661 
Q 3581 3834 3369 3938 
Q 3250 3994 2953 3994 
L 2638 3994 
L 2638 725 
Q 2638 400 2673 319 
Q 2709 238 2814 177 
Q 2919 116 3100 116 
L 3241 116 
L 3241 0 
L 1022 0 
L 1022 116 
L 1163 116 
Q 1347 116 1459 181 
Q 1541 225 1588 331 
Q 1622 406 1622 725 
L 1622 3994 
L 1316 3994 
Q 888 3994 694 3813 
Q 422 3559 350 3091 
L 231 3091 
L 231 4238 
L 4038 4238 
z
" transform="scale(0.015625)"/>
      <path id="TimesNewRomanPS-BoldMT-3d" d="M 125 2825 
L 3544 2825 
L 3544 2419 
L 125 2419 
L 125 2825 
z
M 125 1803 
L 3544 1803 
L 3544 1397 
L 125 1397 
L 125 1803 
z
" transform="scale(0.015625)"/>
      <path id="TimesNewRomanPS-BoldMT-30" d="M 2966 2119 
Q 2966 1484 2788 934 
Q 2681 597 2501 381 
Q 2322 166 2094 39 
Q 1866 -88 1597 -88 
Q 1291 -88 1044 68 
Q 797 225 606 516 
Q 469 728 366 1081 
Q 231 1559 231 2069 
Q 231 2759 425 3338 
Q 584 3816 909 4070 
Q 1234 4325 1597 4325 
Q 1966 4325 2286 4073 
Q 2606 3822 2756 3397 
Q 2966 2813 2966 2119 
z
M 2003 2125 
Q 2003 3238 1991 3422 
Q 1959 3856 1841 4009 
Q 1763 4109 1588 4109 
Q 1453 4109 1375 4034 
Q 1259 3925 1218 3648 
Q 1178 3372 1178 1719 
Q 1178 819 1241 513 
Q 1288 291 1375 216 
Q 1463 141 1606 141 
Q 1763 141 1841 241 
Q 1972 416 1991 781 
L 2003 2125 
z
" transform="scale(0.015625)"/>
      <path id="TimesNewRomanPS-BoldMT-2e" d="M 800 963 
Q 1019 963 1170 809 
Q 1322 656 1322 441 
Q 1322 225 1169 73 
Q 1016 -78 800 -78 
Q 584 -78 432 73 
Q 281 225 281 441 
Q 281 656 432 809 
Q 584 963 800 963 
z
" transform="scale(0.015625)"/>
      <path id="TimesNewRomanPS-BoldMT-34" d="M 159 1597 
L 2172 4325 
L 2553 4325 
L 2553 1597 
L 2941 1597 
L 2941 950 
L 2553 950 
L 2553 0 
L 1694 0 
L 1694 950 
L 159 950 
L 159 1597 
z
M 463 1597 
L 1694 1597 
L 1694 3269 
L 463 1597 
z
" transform="scale(0.015625)"/>
      <path id="TimesNewRomanPS-BoldMT-73" d="M 2063 3003 
L 2109 2006 
L 2003 2006 
Q 1813 2450 1608 2612 
Q 1403 2775 1200 2775 
Q 1072 2775 981 2689 
Q 891 2603 891 2491 
Q 891 2406 953 2328 
Q 1053 2200 1512 1889 
Q 1972 1578 2117 1361 
Q 2263 1144 2263 875 
Q 2263 631 2141 397 
Q 2019 163 1797 37 
Q 1575 -88 1306 -88 
Q 1097 -88 747 44 
Q 653 78 619 78 
Q 516 78 447 -78 
L 344 -78 
L 294 972 
L 400 972 
Q 541 559 786 353 
Q 1031 147 1250 147 
Q 1400 147 1495 239 
Q 1591 331 1591 463 
Q 1591 613 1497 722 
Q 1403 831 1078 1053 
Q 600 1384 459 1559 
Q 253 1816 253 2125 
Q 253 2463 486 2736 
Q 719 3009 1159 3009 
Q 1397 3009 1619 2894 
Q 1703 2847 1756 2847 
Q 1813 2847 1847 2870 
Q 1881 2894 1956 3003 
L 2063 3003 
z
" transform="scale(0.015625)"/>
     </defs>
     <use xlink:href="#TimesNewRomanPS-BoldMT-54"/>
     <use xlink:href="#TimesNewRomanPS-BoldMT-20" x="64.949219"/>
     <use xlink:href="#TimesNewRomanPS-BoldMT-3d" x="89.949219"/>
     <use xlink:href="#TimesNewRomanPS-BoldMT-20" x="146.931641"/>
     <use xlink:href="#TimesNewRomanPS-BoldMT-30" x="171.931641"/>
     <use xlink:href="#TimesNewRomanPS-BoldMT-2e" x="221.931641"/>
     <use xlink:href="#TimesNewRomanPS-BoldMT-34" x="246.931641"/>
     <use xlink:href="#TimesNewRomanPS-BoldMT-34" x="296.931641"/>
     <use xlink:href="#TimesNewRomanPS-BoldMT-34" x="346.931641"/>
     <use xlink:href="#TimesNewRomanPS-BoldMT-20" x="396.931641"/>
     <use xlink:href="#TimesNewRomanPS-BoldMT-73" x="421.931641"/>
    </g>
   </g>
  </g>
 </g>
 <defs>
  <clipPath id="pe37b3d07d2">
   <rect x="7.2" y="7.2" width="604.8" height="604.8"/>
  </clipPath>
 </defs>
</svg>
